<?xml version="1.0" standalone="no"?>
<!DOCTYPE svg PUBLIC "-//W3C//DTD SVG 1.1//EN" "http://www.w3.org/Graphics/SVG/1.1/DTD/svg11.dtd" >
<svg xmlns="http://www.w3.org/2000/svg">
<metadata>Generated by IcoMoon</metadata>
<defs>
<font id="themeperch" horiz-adv-x="1024">
<font-face units-per-em="1024" ascent="960" descent="-64" />
<missing-glyph horiz-adv-x="1024" />
<glyph unicode="&#x20;" horiz-adv-x="512" d="" />
<glyph unicode="&#xe900;" glyph-name="add-home" d="M512 437.76c-11.311 0-20.48-9.169-20.48-20.48v-122.88h-122.88c-11.311 0-20.48-9.169-20.48-20.48s9.169-20.48 20.48-20.48h122.88v-122.88c0-11.311 9.169-20.48 20.48-20.48s20.48 9.169 20.48 20.48v122.88h122.88c11.311 0 20.48 9.169 20.48 20.48s-9.169 20.48-20.48 20.48h-122.88v122.88c0 11.311-9.169 20.48-20.48 20.48zM511.039 878.054c-4.405-0.292-8.377-1.934-11.561-4.51l-201.611-157.085c-0.402-0.252-0.715-0.463-1.022-0.682l-218.232-190.672c-4.26-3.771-6.933-9.253-6.933-15.358 0-11.272 9.109-20.418 20.37-20.481h40.976v-450.865c0.001-11.31 9.172-20.479 20.485-20.48h716.978c11.313 0.001 20.484 9.17 20.485 20.48v450.546h40.97c11.267 0.063 20.376 9.209 20.376 20.481 0 6.105-2.672 11.587-6.911 15.339l-115.89 101.775v169.595c-0.001 11.31-9.172 20.478-20.485 20.479h-102.426c-11.313-0.001-20.484-9.169-20.485-20.479v-47.359l-161.64 125.116c-3.404 2.612-7.723 4.186-12.411 4.186-0.363 0-0.724-0.009-1.083-0.028zM511.679 831.655l182.445-141.116c3.417-2.645 7.763-4.24 12.481-4.24 11.315 0 20.487 9.17 20.487 20.481 0 0.027 0 0.055 0 0.082v68.794h61.455v-158.395c0.029-6.122 2.74-11.605 7.018-15.339l81.964-72.018h-5.441c-0.239 0.010-0.519 0.016-0.8 0.016s-0.561-0.006-0.84-0.017l-723.98 0.319 176.364 154.235 0.96 0.64 187.887 146.556zM173.996 488.946h676.008v-430.067h-676.008v430.067z" />
<glyph unicode="&#xe901;" glyph-name="add-user" d="M789.893 68.342h-714.138c-5.089 0-9.943 2.161-13.343 5.949s-5.018 8.847-4.485 13.906l8.735 80.404c8.868 106.394 84.705 177.961 200.284 191.252-12.186 27.638-20.521 60.375-27.73 93.297-7.967 2.601-17.306 9.677-25.713 26.358-10.455 20.777-20.122 59.638-3.871 81.531 4.721 6.359 11.192 10.619 18.719 12.524 1.219 38.492 6.605 88.74 12.237 110.787 19.579 76.636 99.881 132.27 190.925 132.27 92.58 0 167.547-51.067 190.986-130.099 7.045-23.726 12.718-71.076 13.629-109.363 9.134-0.973 17.152-5.509 22.845-13.148 14.674-19.64 10.547-57.098-1.915-81.951-8.356-16.681-20.029-26.788-33.27-29.010-7.168-32.85-15.514-65.516-27.781-93.225 116.296-13.414 193.147-85.381 202.967-192.666 0.051-0.543 0.072-1.085 0.072-1.638 0.164-3.379 3.062-28.129 4.977-44.513 3.441-29.379 3.758-32.614 3.758-34.765 0.031-9.871-7.997-17.9-17.889-17.9zM95.734 104.182h674.202c-0.492 4.168-1.004 8.581-1.485 12.667-3.625 30.874-4.966 42.895-5.192 47.503-10.353 110.479-101.376 155.412-186.655 161.229-3.369-4.557-6.963-8.827-10.803-12.749-29.327-30.003-82.115-65.034-134.287-65.034-49.111 0-104.53 34.222-135.24 66.017-3.512 3.635-6.82 7.578-9.943 11.796-107.622-6.779-176.138-66.222-183.992-160.44l-6.605-60.989zM311.050 352.85c3.4-5.284 7.055-10.035 11.008-14.121 30.822-31.918 76.861-55.071 109.455-55.071 38.42 0 82.258 27.249 108.667 54.252 29.071 29.727 43.080 96.328 51.446 136.12 0.993 4.68 3.799 8.765 7.813 11.356 3.441 2.222 7.444 3.185 11.52 2.775 1.116 0 2.775 0.102 4.055 0.164 1.444 0.061 2.621 0.113 3.164 0.113 1.219 0.635 7.629 7.434 11.735 22.856 3.727 14.049 2.816 25.62 1.065 29.972-1.69-0.369-3.144-0.84-4.321-1.198-2.294-0.696-4.147-1.26-6.277-1.516-0.297-0.041-0.604-0.061-0.911-0.092-4.506-2.509-12.831-14.582-16.445-19.845-7.229-10.496-12.462-18.094-22.733-19.026-5.345-0.461-11.336 1.7-15.104 5.468-15.34 15.35-20.552 49.039-22.292 72.765-98.826-14.203-164.895 24.771-200.294 55.675-2.509-18.514-7.803-39.956-18.606-58.747-16.517-28.744-16.722-31.652-18.022-50.575l-0.563-7.823c-0.584-7.506-6.011-14.316-13.261-16.353-12.739-3.523-19.63 6.021-25.149 13.742-12.923 18.043-19.497 23.501-22.835 24.668-0.922-0.072-2.744-0.061-4.844 0.307-0.563 0.092-1.004 0.143-1.341 0.164-0.942-2.345-1.894-8.468-0.379-18.156 2.417-15.616 9.062-28.641 12.82-32.942 0.635 0.020 1.198 0.061 1.577 0.092 9.288 1.546 17.449-4.731 19.425-14.111 7.547-35.717 18.371-86.907 38.697-119.48 0.348-0.471 0.655-0.952 0.932-1.434zM559.995 616.96c4.065 0 8.049-1.382 11.264-3.983 4.188-3.379 6.636-8.468 6.666-13.855 0.082-15.401 1.864-33.516 4.741-47.473 5.12 6.554 10.977 12.851 17.756 17.121-0.215 35.768-5.734 85.524-12.268 107.561-18.821 63.457-80.302 104.448-156.631 104.448-74.906 0-140.605-44.288-156.201-105.308-5.13-20.091-10.363-71.25-11.254-107.162 4.188-2.529 8.151-5.704 11.889-9.277 3.154 8.438 8.274 18.412 16.978 33.567 16.22 28.201 16.773 69.458 15.606 82.985-0.696 8.12 4.178 15.698 11.858 18.422s16.23-0.082 20.818-6.83c2.806-4.086 71.27-100.864 215.081-70.605 1.229 0.266 2.468 0.389 3.697 0.389zM813.496 522.332c-9.902 0-17.92 8.028-17.92 17.92v116.818h-119.808c-9.902 0-17.92 8.028-17.92 17.92s8.018 17.92 17.92 17.92h119.808v116.828c0 9.892 8.018 17.92 17.92 17.92s17.92-8.028 17.92-17.92v-116.818h116.818c9.902 0 17.92-8.028 17.92-17.92s-8.018-17.92-17.92-17.92h-116.818v-116.818c0-9.902-8.018-17.93-17.92-17.93z" />
<glyph unicode="&#xe902;" glyph-name="add-user2" d="M834.918 82.135c-13.107 9.359-26.644 18.565-41.083 25.539-43.684 21.125-90.337 33.321-137.605 43.448-14.582 3.133-30.198 4.465-43.305 10.844-29.409 14.316-45.537 41.032-58.368 69.673 6.881 5.806 13.261 10.803 19.128 16.333 5.888 5.54 11.653 11.305 16.835 17.49 50.76 60.713 80.527 130.796 90.655 208.916 7.004 54.047 4.977 107.397-16.957 158.935-17.029 40.028-43.131 71.772-79.432 95.017-48.691 31.181-102.38 41.042-159.314 34.785-98.826-10.813-177.285-74.455-195.205-180.675-18.78-111.237 11.192-212.091 77.117-302.408 13.271-18.156 30.618-33.331 46.592-50.412-8.571-20.541-21.975-40.090-37.519-54.405-11.766-10.854-25.262-17.644-41.267-20.255-42.957-7.025-84.972-17.93-125.85-32.973-25.938-9.523-51.118-20.593-72.97-38.093-13.332-10.67-21.002-24.32-23.132-41.196-0.276-2.294-1.147-4.516-1.741-6.769v-39.598c5.059-7.404 12.114-9.134 20.879-9.134 254.986 0.205 509.993 0.164 764.979 0.164 1.802 0 3.604-0.072 5.396 0.020 9.605 0.492 15.299 5.714 15.176 15.206-0.205 13.773-0.584 27.587-1.925 41.288-1.526 15.534-8.305 29.102-21.084 38.257zM828.457 16.589h-747.387c-2.54 23.532 3.983 41.492 25.487 53.862 30.7 17.644 63.549 29.501 97.372 38.799 24.228 6.656 48.824 12.421 73.595 16.599 27.996 4.751 50.524 17.93 69.018 38.789 17.050 19.261 29.788 41.216 39.875 64.809 3.287 7.731 2.048 14.346-4.844 19.005-42.691 28.918-70.154 69.775-91.238 115.681-18.135 39.465-31.14 80.374-34.632 123.914-3.82 47.35-2.632 94.054 17.838 138.322 26.624 57.641 72.243 91.423 133.407 104.376 56.033 11.858 109.875 5.335 159.416-24.996 50.739-31.089 78.397-77.875 85.852-135.813 13.251-103.219-14.377-196.014-77.588-277.965-12.421-16.087-29.635-28.559-45.138-42.117-6.318-5.54-10.25-11.008-6.728-19.333 12.564-29.88 29.061-57.108 53.524-78.961 16.64-14.868 36.332-22.139 58.184-25.938 49.408-8.602 97.679-21.494 143.565-42.26 8.417-3.809 16.333-8.796 24.596-12.984 22.17-11.182 28.467-29.993 25.825-53.791zM858.010 794.061v114.739h-28.805v-115.415h-114.483v-28.692h114.668v-114.371h28.948v114.76h114.156v28.979h-114.483z" />
<glyph unicode="&#xe903;" glyph-name="add-user3" d="M950.619 201.425c-61.042 81.4-166.458 156.783-239.992 171.617-22.175 4.433-38.967 19.567-43.825 39.533-1.908 7.633-2.625 29.833-3.225 51.55 39.675 32.15 72.908 79.467 92.1 131.1 15.95 3.333 30.183 23.9 35.367 52.617 4.842 29.4-2.033 53.75-16.567 61.917 0.15 67.783-0.2 126.383-23.967 170.9-27.25 51.067-81.55 74.917-170.883 75.067-0.008 0-1.992 0-2 0-89.342-0.15-143.642-24-170.883-75.067-23.6-44.217-24.108-102.3-23.958-170.9-14.533-8.167-21.408-32.533-16.55-62.050 5.167-28.6 19.4-49.15 35.342-52.483 19.192-51.633 52.425-98.95 92.108-131.1-0.583-20.95-1.3-43.8-3.242-51.6-4.842-19.917-21.633-35.050-43.825-39.483-50.592-10.217-116.258-48.367-175.65-102.050-3.492-3.167-3.767-8.567-0.608-12.050 3.158-3.517 8.567-3.75 12.058-0.617 56.358 50.95 120.575 88.5 167.567 97.983 28.75 5.75 50.608 25.75 57.033 52.133 2.467 9.883 3.117 33.233 3.85 59.467 0.075 2.7-1.142 5.283-3.275 6.95-40.058 31.3-73.533 79.183-91.842 131.35-1.317 3.767-5.117 6.2-9.058 5.633-7.033-0.6-19.092 13.633-23.642 38.767-4.258 25.9 2.858 43.617 9.842 44.917 4.050 0.75 6.983 5.833 6.975 9.95-0.175 67.317-0.317 125.467 21.933 167.15 23.958 44.917 73.483 65.9 155.858 66.033l-0.017 8.533 1.95-8.533c82.367-0.133 131.892-21.117 155.858-66.033 22.25-41.683 22.108-99.817 21.942-168.7-0.008-4.117 2.925-7.65 6.975-8.4 6.983-1.3 14.1-19.017 9.858-44.783-4.567-25.3-16.95-39.6-23.667-38.9-3.908 0.567-7.733-1.867-9.058-5.633-18.317-52.183-51.783-100.050-91.833-131.35-2.133-1.667-3.317-5.45-3.242-8.167 0.692-24.85 1.333-48.333 3.808-58.2 6.433-26.433 28.292-46.433 57.025-52.183 68.783-13.883 171.833-87.95 229.708-165.117 14.125-18.833 17.65-45.95 8.383-64.5-7.083-14.183-20.967-21.667-40.15-21.667h-463.533c-4.717 0-8.533-3.817-8.533-8.533s3.817-8.533 8.533-8.533h463.533c25.708 0 45.392 11.050 55.417 31.1 12 24.017 7.8 58.667-10 82.367zM360.41 105.025h-139.167v139.167c0 4.717-3.817 8.533-8.533 8.533s-8.533-3.817-8.533-8.533v-139.167h-139.158c-4.717 0-8.533-3.817-8.533-8.533s3.817-8.533 8.533-8.533h139.158v-139.167c0-4.717 3.817-8.533 8.533-8.533s8.533 3.817 8.533 8.533v139.167h139.167c4.717 0 8.533 3.817 8.533 8.533s-3.817 8.533-8.533 8.533z" />
<glyph unicode="&#xe904;" glyph-name="alarm" d="M864 56h-688c-4.416 0-8-3.584-8-8s3.584-8 8-8h688c4.416 0 8 3.584 8 8s-3.584 8-8 8zM296 142.128c0-4.416 3.584-8 8-8h416c4.416 0 8 3.584 8 8v305.872c0 119.104-96.896 216-216 216s-216-96.896-216-216v-305.872zM312 448c0 110.288 89.712 200 200 200s200-89.712 200-200v-297.872h-400v297.872zM512 568c-4.416 0-8-3.584-8-8s3.584-8 8-8c57.344 0 104-46.656 104-104v-224c0-4.416 3.584-8 8-8s8 3.584 8 8v224c0 66.176-53.824 120-120 120zM912 456h-112c-4.416 0-8-3.584-8-8s3.584-8 8-8h112c4.416 0 8 3.584 8 8s-3.584 8-8 8zM232 448c0 4.416-3.584 8-8 8h-112c-4.416 0-8-3.584-8-8s3.584-8 8-8h112c4.416 0 8 3.584 8 8zM511.984 728c4.416 0 8 3.584 8 8v112c0 4.416-3.584 8-8 8s-8-3.584-8-8v-112c0-4.416 3.584-8 8-8zM715.648 643.648c2.048 0 4.096 0.784 5.664 2.336l79.2 79.2c3.12 3.12 3.12 8.192 0 11.312s-8.192 3.12-11.312 0l-79.2-79.2c-3.12-3.12-3.12-8.192 0-11.312 1.552-1.552 3.6-2.336 5.648-2.336zM302.688 645.984c1.568-1.568 3.616-2.336 5.664-2.336s4.096 0.784 5.664 2.336c3.12 3.12 3.12 8.192 0 11.312l-79.2 79.2c-3.12 3.12-8.192 3.12-11.312 0s-3.12-8.192 0-11.312l79.184-79.2z" />
<glyph unicode="&#xe905;" glyph-name="angle-left" d="M691.2 69.12c-5.12 0-10.24 2.048-14.336 6.144l-358.4 358.4c-8.192 8.192-8.192 20.48 0 28.672l358.4 358.4c8.192 8.192 20.48 8.192 28.672 0s8.192-20.48 0-28.672l-344.064-344.064 344.064-344.064c8.192-8.192 8.192-20.48 0-28.672-4.096-4.096-9.216-6.144-14.336-6.144z" />
<glyph unicode="&#xe906;" glyph-name="angle-right" d="M332.8 69.12c-5.12 0-10.24 2.048-14.336 6.144-8.192 8.192-8.192 20.48 0 28.672l344.064 344.064-344.064 344.064c-8.192 8.192-8.192 20.48 0 28.672s20.48 8.192 28.672 0l358.4-358.4c8.192-8.192 8.192-20.48 0-28.672l-358.4-358.4c-4.096-4.096-9.216-6.144-14.336-6.144z" />
<glyph unicode="&#xe907;" glyph-name="angle-up" d="M870.4 253.44c-5.12 0-10.24 2.048-14.336 6.144l-344.064 344.064-344.064-344.064c-8.192-8.192-20.48-8.192-28.672 0s-8.192 20.48 0 28.672l358.4 358.4c8.192 8.192 20.48 8.192 28.672 0l358.4-358.4c8.192-8.192 8.192-20.48 0-28.672-4.096-4.096-9.216-6.144-14.336-6.144z" />
<glyph unicode="&#xe909;" glyph-name="arrow-right-thin" d="M675.2 622.4c-5.521-0.172-9.932-4.689-9.932-10.236 0-3.23 1.496-6.111 3.832-7.988l164.18-145.936h-669.44c-0.143 0.007-0.311 0.011-0.48 0.011s-0.337-0.004-0.504-0.012c-5.428-0.263-9.748-4.746-9.748-10.239 0-5.662 4.59-10.251 10.251-10.251 0.169 0 0.337 0.004 0.504 0.012l669.416-0.001-164.16-145.92c-2.54-1.886-4.167-4.876-4.167-8.246 0-5.656 4.585-10.241 10.241-10.241 2.891 0 5.502 1.198 7.364 3.124l184.323 163.843c2.13 1.886 3.466 4.627 3.466 7.68s-1.336 5.794-3.456 7.671l-184.331 163.849c-1.841 1.783-4.353 2.883-7.123 2.883-0.083 0-0.167-0.001-0.25-0.003z" />
<glyph unicode="&#xe90a;" glyph-name="balcony" d="M896 304h-80v97.632c36.464 7.424 64 39.744 64 78.368s-27.536 70.944-64 78.384v161.616h80c8.848 0 16 7.168 16 16s-7.152 16-16 16h-768c-8.832 0-16-7.168-16-16s7.168-16 16-16h80v-161.616c-36.464-7.44-64-39.744-64-78.384s27.536-70.96 64-78.368v-97.632h-80c-8.832 0-16-7.152-16-16v-128c0-8.848 7.168-16 16-16h768c8.848 0 16 7.152 16 16v128c0 8.848-7.152 16-16 16zM848 480c0-26.464-21.536-48-48-48s-48 21.536-48 48 21.536 48 48 48 48-21.536 48-48zM784 558.384c-36.464-7.44-64-39.744-64-78.384s27.536-70.96 64-78.368v-97.632h-256v97.632c36.464 7.424 64 39.744 64 78.368s-27.536 70.944-64 78.384v161.616h256v-161.616zM512 528c26.464 0 48-21.536 48-48s-21.536-48-48-48-48 21.536-48 48 21.536 48 48 48zM176 480c0 26.464 21.536 48 48 48s48-21.536 48-48-21.536-48-48-48-48 21.536-48 48zM240 401.632c36.464 7.424 64 39.744 64 78.368s-27.536 70.944-64 78.384v161.616h256v-161.616c-36.464-7.44-64-39.744-64-78.384s27.536-70.96 64-78.368v-97.632h-256v97.632zM880 176h-736v96h736v-96z" />
<glyph unicode="&#xe90b;" glyph-name="bathroom" d="M608.256 363.008h-485.376v296.96c0 27.648 22.528 50.176 50.176 50.176 25.6 0 47.104-19.456 49.152-45.056h-6.144c-18.432 0-33.792-15.36-33.792-33.792v-16.384h91.136v16.384c0 18.432-15.36 33.792-33.792 33.792h-6.144c-3.072 30.72-28.672 55.296-60.416 55.296-33.792 0-60.416-27.648-60.416-60.416v-296.96h-14.336c-14.336 0-26.624-12.288-26.624-26.624v-153.6c0-14.336 12.288-26.624 26.624-26.624h510.976c14.336 0 26.624 12.288 26.624 26.624v153.6c-1.024 14.336-12.288 26.624-27.648 26.624zM264.192 631.296v-6.144h-70.656v6.144c0 13.312 11.264 23.552 23.552 23.552h22.528c13.312 0 24.576-10.24 24.576-23.552zM98.304 352.768h510.976c9.216 0 16.384-7.168 16.384-16.384v-30.72h-543.744v30.72c0 9.216 7.168 16.384 16.384 16.384zM608.256 166.4h-509.952c-9.216 0-16.384 7.168-16.384 16.384v112.64h542.72v-112.64c0-9.216-7.168-16.384-16.384-16.384zM922.624 363.008h-2.048v32.768c0 19.456-15.36 34.816-34.816 34.816h-151.552c-19.456 0-34.816-15.36-34.816-34.816v-32.768h-2.048c-14.336 0-26.624-12.288-26.624-26.624v-153.6c0-14.336 12.288-26.624 26.624-26.624h225.28c14.336 0 26.624 12.288 26.624 26.624v153.6c0 14.336-12.288 26.624-26.624 26.624zM709.632 395.776c0 13.312 11.264 24.576 24.576 24.576h151.552c13.312 0 24.576-11.264 24.576-24.576v-32.768h-200.704v32.768zM939.008 182.784c0-9.216-7.168-16.384-16.384-16.384h-225.28c-9.216 0-16.384 7.168-16.384 16.384v153.6c0 9.216 7.168 16.384 16.384 16.384h225.28c9.216 0 16.384-7.168 16.384-16.384 0 0 0-153.6 0-153.6zM804.864 540.16h10.24v-76.8h-10.24v76.8zM857.088 489.984h10.24v-26.624h-10.24v26.624zM756.736 489.984h10.24v-26.624h-10.24v26.624zM195.584 599.552h10.24v-18.432h-10.24v18.432zM252.928 599.552h10.24v-18.432h-10.24v18.432zM195.584 556.544h10.24v-18.432h-10.24v18.432zM252.928 556.544h10.24v-18.432h-10.24v18.432zM195.584 513.536h10.24v-18.432h-10.24v18.432zM252.928 513.536h10.24v-18.432h-10.24v18.432zM195.584 471.552h10.24v-18.432h-10.24v18.432zM252.928 471.552h10.24v-18.432h-10.24v18.432zM195.584 428.544h10.24v-18.432h-10.24v18.432zM252.928 428.544h10.24v-18.432h-10.24v18.432zM792.576 305.664h-75.776c-3.072 0-5.12-2.048-5.12-5.12s2.048-5.12 5.12-5.12h75.776c3.072 0 5.12 2.048 5.12 5.12s-2.048 5.12-5.12 5.12z" />
<glyph unicode="&#xe90d;" glyph-name="bed2" horiz-adv-x="1025" d="M819.1 412.779c-0.043 0.206-0.128 0.412-0.178 0.612-0.178 0.619-0.42 1.216-0.711 1.785-0.057 0.128-0.085 0.256-0.149 0.384l-69.781 125.589v175.822c0 5.888-4.779 10.667-10.667 10.667h-435.392c-5.888 0-10.667-4.779-10.667-10.667v-172.629c-0.185-0.27-0.427-0.491-0.583-0.782l-71.118-128c-0.071-0.128-0.092-0.263-0.149-0.391-0.284-0.562-0.519-1.159-0.704-1.778-0.064-0.206-0.142-0.405-0.185-0.612-0.178-0.768-0.299-1.572-0.299-2.404v-246.777h21.333v99.257h558.222v-99.257h21.333v246.777c0 0.832-0.128 1.628-0.306 2.404zM312.889 706.304h414.059v-157.262h-38.208v69.383c0 5.888-4.779 10.667-10.667 10.667h-318.222c-5.888 0-10.667-4.779-10.667-10.667v-69.383h-36.295v157.262zM667.406 607.758v-101.653h-137.778v101.653h137.778zM508.295 607.758v-101.653h-137.778v101.653h137.778zM306.574 527.708h42.603v-32.27c0-5.888 4.779-10.667 10.667-10.667h318.222c5.888 0 10.667 4.779 10.667 10.667v32.27h42.596l59.264-106.667h-543.289l59.271 106.667zM798.073 284.188h-558.222v115.52h558.222v-115.52z" />
<glyph unicode="&#xe90e;" glyph-name="budding" d="M749.2 317.8l23.2 22.8-384.2 390.8-145.8-149.2v76.2h-129.6v-208.8l-108.8-111 23.2-22.6 37 37.8v-375.6h-48.6v-32.4h745.2v32.4h-48.6v377.4l37-37.8zM145.2 626.2h64.8v-77l-64.8-66.2v143.2zM291-21.8v259.2h194.4v-259.2h-194.4zM679.8-21.8h-162v291.6h-259.2v-291.6h-162v408.6l291.6 298.2 291.6-296.6v-410.2zM372 496.6h32.4v-32.4h-32.4v32.4zM436.8 496.6h32.4v-32.4h-32.4v32.4zM307.2 496.6h32.4v-32.4h-32.4v32.4zM793.2 950.2c-125 0-226.8-80-226.8-178.2 0-43.4 19.8-84.8 56-117.2l-12.4-98.6 74.4 59.4c33.4-14.4 70.8-21.8 108.8-21.8 125 0 226.8 80 226.8 178.2s-101.8 178.2-226.8 178.2zM793.2 626.2c-36.8 0-67.8 6.2-113.2 27.4l-27.8-22.2 4.6 36.8c0 0-58 40.8-58 103.8 0 80.4 87.2 145.8 194.4 145.8s194.4-65.4 194.4-145.8-87.2-145.8-194.4-145.8zM766 821c0 14-6 49-43.4 49-32.8 0-43.4-26.8-43.4-49 0-14.2 6.2-49 43.4-49 37.6 0 43.4 35 43.4 49zM722.6 798.2c-14.2 0-16.8 16-16.8 22.8s2.4 22.8 16.8 22.8c14.2 0 16.8-16 16.8-22.8s-2-22.8-16.8-22.8zM863.8 788.2c-32.4 0-43.4-26.6-43.4-48.6 0-14.2 5.2-47 43.4-48.6 36.4-1.4 43.4 34.8 43.4 48.6s-5.6 48.6-43.4 48.6zM863.8 717c-14.4 0-16.8 16-16.8 22.6 0 6.8 2 22.6 16.8 22.6 14.4 0 16.8-15.8 16.8-22.6 0-6.6-2.4-22.6-16.8-22.6zM854 866c-5.2 4.4-15.4 4.6-20.4-2.6l-102-151.4c-4.2-6.6-1.6-12.6 1.6-15.8 2.4-2.4 13.4-8.4 20.8 2.4l101.4 150.4c5.4 8 1.2 14.8-1.4 17z" />
<glyph unicode="&#xe90f;" glyph-name="building" d="M452.336 604.020h15.097v-18.124h-15.097v18.124zM877.64 335.94h-71.879v30.956c0 5.002-4.060 9.062-9.062 9.062s-9.062-4.060-9.062-9.062v-30.956h-37.761v30.956c0 5.002-4.060 9.062-9.062 9.062s-9.062-4.060-9.062-9.062v-30.956h-43.796v30.956c0 5.002-4.060 9.062-9.062 9.062s-9.062-4.060-9.062-9.062v-30.956h-43.796v30.956c0 5.002-4.060 9.062-9.062 9.062s-9.062-4.060-9.062-9.062v-30.956h-44.558v373.805c0 6.253-5.066 11.327-11.327 11.327h-87.276v70.439c49.061 51.952 56.982 125.136 16.964 165.145-4.422 4.422-11.59 4.422-16.012 0l-78.495-78.495-28.083 28.083c7.086 13.901 4.993 31.318-6.615 42.936v0c-14.427 14.427-37.906 14.427-52.333 0-14.418-14.436-14.418-37.906 0-52.333 7.213-7.213 16.692-10.811 26.171-10.811 5.782 0 11.5 1.513 16.765 4.196l28.083-28.083-78.495-78.495c-4.422-4.422-4.422-11.59 0-16.022 17.245-17.254 40.679-25.618 65.908-25.618 27.594 0 57.29 10.158 83.488 29.469v-50.412h-137.769c-6.253 0-11.327-5.075-11.327-11.327v-86.841h-32.469v23.407c0 5.002-4.060 9.062-9.062 9.062s-9.062-4.060-9.062-9.062v-23.407h-36.248v23.407c0 5.002-4.060 9.062-9.062 9.062s-9.062-4.060-9.062-9.062v-23.407h-40.779c-6.253 0-11.327-5.075-11.327-11.327v-666.053c0-6.253 5.075-11.327 11.327-11.327h730.375c6.253 0 11.327 5.075 11.327 11.327v379.097c0.009 6.253-5.066 11.318-11.318 11.318zM336.47 912.869c-5.591-5.6-14.698-5.591-20.299 0-5.591 5.591-5.591 14.698 0 20.29 2.8 2.8 6.47 4.196 10.149 4.196 3.67 0 7.349-1.396 10.149-4.196 5.6-5.591 5.6-14.698 0-20.29zM317.458 776.378l155.503 155.503c23.035-33.593 12.061-88.327-27.557-127.946 0 0-0.009-0.009-0.009-0.009-39.601-39.61-94.335-50.602-127.937-27.548zM260.531 600.25h32.469v-54.372h-32.469v54.372zM206.159 600.25h36.248v-54.372h-36.248v54.372zM158.584 600.25h29.451v-54.372h-29.451v54.372zM401.934-43.148h-104.584v140.46h104.593v-140.46zM540.69 267.223v-310.372h-120.633v149.522c0 5.002-4.060 9.062-9.062 9.062h-122.708c-5.002 0-9.062-4.060-9.062-9.062v-149.522h-120.642v566.372h382.106v-256zM414.584 545.878v100.434h72.496v-100.434h-72.496zM540.69 545.878h-35.487v109.496c0 5.002-4.060 9.062-9.062 9.062h-90.619c-5.002 0-9.062-4.060-9.062-9.062v-109.496h-80.805v152.54h225.035v-152.54zM749.867 313.285h37.761v-34.744h-37.761v34.744zM687.947 313.285h43.796v-34.744h-43.796v34.744zM626.026 313.285h43.796v-34.744h-43.796v34.744zM563.345 313.285h44.558v-34.744h-44.558v34.744zM766.94-43.148h-106.061v19.828h106.061v-19.828zM766.94-5.206h-106.061v22.093h106.061v-22.093zM866.313-43.148h-81.249v19.828h27.186c5.002 0 9.062 4.060 9.062 9.062s-4.060 9.062-9.062 9.062h-27.186v22.093h27.186c5.002 0 9.062 4.060 9.062 9.062s-4.060 9.062-9.062 9.062h-194.832c-5.002 0-9.062-4.060-9.062-9.062s4.060-9.062 9.062-9.062h25.337v-22.093h-25.337c-5.002 0-9.062-4.060-9.062-9.062s4.060-9.062 9.062-9.062h25.337v-19.828h-79.401v299.044h302.959v-299.044zM866.313 278.551h-60.552v34.744h60.552v-34.744zM372.292 35.011h13.593v-18.124h-13.593v18.124zM610.866 70.978h192.177c5.002 0 9.062 4.060 9.062 9.062v135.748c0 5.002-4.060 9.062-9.062 9.062h-192.177c-5.002 0-9.062-4.060-9.062-9.062v-135.748c0-5.011 4.060-9.062 9.062-9.062zM716.030 206.717h77.969v-49.75h-77.969v49.75zM716.030 138.843h77.969v-49.75h-77.969v49.75zM619.928 206.717h77.969v-49.75h-77.969v49.75zM619.928 138.843h77.969v-49.75h-77.969v49.75zM222.77 485.462c-14.988 0-27.186-12.197-27.186-27.186v-106.478c0-5.002 4.060-9.062 9.062-9.062h111.009c5.002 0 9.062 4.060 9.062 9.062v106.478c0 14.988-12.197 27.186-27.186 27.186h-74.761zM306.593 458.276v-97.416h-92.885v97.416c0 4.993 4.069 9.062 9.062 9.062h74.761c4.993 0 9.062-4.060 9.062-9.062zM385.885 342.736h111.009c5.002 0 9.062 4.060 9.062 9.062v106.478c0 14.988-12.197 27.186-27.186 27.186h-74.761c-14.988 0-27.186-12.197-27.186-27.186v-106.478c0-5.002 4.060-9.062 9.062-9.062zM394.947 458.276c0 4.993 4.069 9.062 9.062 9.062h74.761c4.993 0 9.062-4.069 9.062-9.062v-97.416h-92.885v97.416zM296.398 299.692h-74.761c-14.988 0-27.186-12.197-27.186-27.186v-106.478c0-5.002 4.060-9.062 9.062-9.062h111.009c5.002 0 9.062 4.060 9.062 9.062v106.478c0 14.998-12.197 27.186-27.186 27.186zM305.46 175.090h-92.885v97.416c0 4.993 4.069 9.062 9.062 9.062h74.761c4.993 0 9.062-4.069 9.062-9.062v-97.416zM384.752 156.967h111.009c5.002 0 9.062 4.060 9.062 9.062v106.478c0 14.988-12.197 27.186-27.186 27.186h-74.761c-14.988 0-27.186-12.197-27.186-27.186v-106.478c0-5.002 4.060-9.062 9.062-9.062zM393.814 272.506c0 4.993 4.069 9.062 9.062 9.062h74.761c4.993 0 9.062-4.069 9.062-9.062v-97.416h-92.885v97.416z" />
<glyph unicode="&#xe910;" glyph-name="calculator" d="M174.080 837.12c-28.188 0-51.2-23.012-51.2-51.2v-675.84c0-28.188 23.012-51.2 51.2-51.2h675.84c28.188 0 51.2 23.012 51.2 51.2v593.92c0.001 0.043 0.001 0.094 0.001 0.145 0 5.656-4.585 10.241-10.241 10.241s-10.241-4.585-10.241-10.241c0-0.051 0-0.102 0.001-0.152v-593.912c0-17.196-13.524-30.72-30.72-30.72h-675.84c-17.196 0-30.72 13.524-30.72 30.72v675.84c0 17.196 13.524 30.72 30.72 30.72h675.84c17.196 0 30.72-13.524 30.72-30.72-0.001-0.043-0.001-0.094-0.001-0.145 0-5.656 4.585-10.241 10.241-10.241s10.241 4.585 10.241 10.241c0 0.051 0 0.102-0.001 0.152 0 28.18-23.012 51.192-51.2 51.192h-675.84zM347.2 724.8c-0.504-0.093-0.934-0.203-1.352-0.341-4.541-1.039-7.931-5.11-7.931-9.973 0-0.087 0.001-0.173 0.003-0.259v-81.907h-81.92c-0.288 0.029-0.622 0.045-0.96 0.045s-0.672-0.016-1.002-0.048c-5.21-0.504-9.283-4.895-9.283-10.237 0-5.68 4.605-10.285 10.285-10.285 0.338 0 0.672 0.016 1.002 0.048l81.878-0.003v-81.92c-0.001-0.043-0.001-0.094-0.001-0.145 0-5.656 4.585-10.241 10.241-10.241s10.241 4.585 10.241 10.241c0 0.051 0 0.102-0.001 0.152v81.912h81.92c0.043-0.001 0.094-0.001 0.145-0.001 5.656 0 10.241 4.585 10.241 10.241s-4.585 10.241-10.241 10.241c-0.051 0-0.102 0-0.152-0.001h-81.912v81.92c0.004 0.109 0.006 0.236 0.006 0.365 0 5.656-4.585 10.241-10.241 10.241-0.34 0-0.676-0.017-1.008-0.049zM581.76 683.52c-5.252-0.507-9.325-4.898-9.325-10.24 0-5.68 4.605-10.285 10.285-10.285 0.338 0 0.672 0.016 1.002 0.048l184.278-0.003c0.043-0.001 0.094-0.001 0.145-0.001 5.656 0 10.241 4.585 10.241 10.241s-4.585 10.241-10.241 10.241c-0.051 0-0.102 0-0.152-0.001h-184.312c-0.288 0.029-0.622 0.045-0.96 0.045s-0.672-0.016-1.002-0.048zM581.76 581.12c-5.252-0.507-9.325-4.898-9.325-10.24 0-5.68 4.605-10.285 10.285-10.285 0.338 0 0.672 0.016 1.002 0.048l184.278-0.003c0.043-0.001 0.094-0.001 0.145-0.001 5.656 0 10.241 4.585 10.241 10.241s-4.585 10.241-10.241 10.241c-0.051 0-0.102 0-0.152-0.001h-184.312c-0.288 0.029-0.622 0.045-0.96 0.045s-0.672-0.016-1.002-0.048zM592.64 366.4c-5.213-0.522-9.249-4.886-9.249-10.193 0-2.911 1.215-5.539 3.165-7.403l74.564-74.884-74.56-74.56c-1.841-1.859-2.979-4.419-2.979-7.243 0-5.686 4.61-10.296 10.296-10.296 2.904 0 5.528 1.203 7.4 3.137l74.563 74.563 74.56-74.56c1.867-1.885 4.456-3.053 7.318-3.053 5.686 0 10.296 4.61 10.296 10.296 0 2.782-1.103 5.307-2.897 7.159l-74.557 74.557 74.56 74.88c1.934 1.866 3.136 4.48 3.136 7.375 0 5.656-4.585 10.241-10.241 10.241-0.202 0-0.403-0.006-0.602-0.017-2.753-0.112-5.232-1.317-7.008-3.194l-74.564-74.565-74.56 74.56c-1.875 2.011-4.539 3.264-7.497 3.264-0.403 0-0.8-0.023-1.191-0.069zM254.080 284.16c-5.252-0.507-9.325-4.898-9.325-10.24 0-5.68 4.605-10.285 10.285-10.285 0.338 0 0.672 0.016 1.002 0.048l184.278-0.003c0.043-0.001 0.094-0.001 0.145-0.001 5.656 0 10.241 4.585 10.241 10.241s-4.585 10.241-10.241 10.241c-0.051 0-0.102 0-0.152-0.001h-184.312c-0.288 0.029-0.622 0.045-0.96 0.045s-0.672-0.016-1.002-0.048z" />
<glyph unicode="&#xe911;" glyph-name="calender" d="M192.64 837.12c-4.771-0.935-8.322-5.082-8.322-10.060 0-0.063 0.001-0.127 0.002-0.19v-92.151h-102.4c-0.288 0.029-0.622 0.045-0.96 0.045s-0.672-0.016-1.002-0.048c-4.729-0.931-8.28-5.079-8.28-10.056 0-0.063 0.001-0.127 0.002-0.19v-655.351c0.001-5.655 4.585-10.239 10.24-10.24h860.16c5.655 0.001 10.239 4.585 10.24 10.24v512c-0.001 5.655-4.585 10.239-10.24 10.24h-849.92v122.88h839.68v-51.2c-0.001-0.043-0.001-0.094-0.001-0.145 0-5.656 4.585-10.241 10.241-10.241s10.241 4.585 10.241 10.241c0 0.051 0 0.102-0.001 0.152v61.432c-0.001 5.655-4.585 10.239-10.24 10.24h-102.4v92.16c-0.001 5.655-4.585 10.239-10.24 10.24h-102.4c-0.288 0.029-0.622 0.045-0.96 0.045s-0.672-0.016-1.002-0.048c-4.729-0.931-8.28-5.079-8.28-10.056 0-0.063 0.001-0.127 0.002-0.19v-92.151h-409.6v92.16c-0.001 5.655-4.585 10.239-10.24 10.24h-102.4c-0.143 0.007-0.311 0.011-0.48 0.011s-0.337-0.004-0.504-0.012c-0.12 0.008-0.288 0.012-0.456 0.012s-0.337-0.004-0.504-0.012zM204.8 816.64h81.92v-81.92h-81.92v81.92zM737.28 816.64h81.92v-81.92h-81.92v81.92zM92.16 570.88h839.68v-491.52h-839.68v491.52zM172.16 478.72c-4.771-0.935-8.322-5.082-8.322-10.060 0-0.063 0.001-0.127 0.002-0.19v-102.391c0.001-5.655 4.585-10.239 10.24-10.24h143.36c5.655 0.001 10.239 4.585 10.24 10.24v102.4c-0.001 5.655-4.585 10.239-10.24 10.24h-143.36c-0.143 0.007-0.311 0.011-0.48 0.011s-0.337-0.004-0.504-0.012c-0.12 0.008-0.288 0.012-0.456 0.012s-0.337-0.004-0.504-0.012zM439.68 478.72c-5.373-0.347-9.6-4.791-9.6-10.221 0-0.007 0-0.013 0-0.020v-102.399c0.001-5.655 4.585-10.239 10.24-10.24h143.36c5.655 0.001 10.239 4.585 10.24 10.24v102.4c0.001 0.054 0.002 0.117 0.002 0.18 0 4.977-3.55 9.125-8.257 10.049-0.353 0.039-0.687 0.056-1.025 0.056s-0.672-0.016-1.002-0.048l-143.318 0.003c-0.095 0.003-0.207 0.005-0.32 0.005s-0.225-0.002-0.336-0.005zM705.92 478.72c-5.373-0.347-9.6-4.791-9.6-10.221 0-0.007 0-0.013 0-0.020v-102.399c0.001-5.655 4.585-10.239 10.24-10.24h143.36c5.655 0.001 10.239 4.585 10.24 10.24v102.4c0.001 0.054 0.002 0.117 0.002 0.18 0 4.977-3.55 9.125-8.257 10.049-0.353 0.039-0.687 0.056-1.025 0.056s-0.672-0.016-1.002-0.048l-143.318 0.003c-0.095 0.003-0.207 0.005-0.32 0.005s-0.225-0.002-0.336-0.005zM184.32 458.24h122.88v-81.92h-122.88v81.92zM450.56 458.24h122.88v-81.92h-122.88v81.92zM716.8 458.24h122.88v-81.92h-122.88v81.92zM172.16 273.92c-4.771-0.935-8.322-5.082-8.322-10.060 0-0.063 0.001-0.127 0.002-0.19v-102.391c0.001-5.655 4.585-10.239 10.24-10.24h143.36c5.655 0.001 10.239 4.585 10.24 10.24v102.4c-0.001 5.655-4.585 10.239-10.24 10.24h-143.36c-0.288 0.029-0.622 0.045-0.96 0.045s-0.672-0.016-1.002-0.048zM439.68 273.92c-5.373-0.347-9.6-4.791-9.6-10.221 0-0.007 0-0.013 0-0.020v-102.399c0.001-5.655 4.585-10.239 10.24-10.24h143.36c5.655 0.001 10.239 4.585 10.24 10.24v102.4c0.001 0.054 0.002 0.117 0.002 0.18 0 4.977-3.55 9.125-8.257 10.049-0.353 0.039-0.687 0.056-1.025 0.056s-0.672-0.016-1.002-0.048l-143.318 0.003c-0.095 0.003-0.207 0.005-0.32 0.005s-0.225-0.002-0.336-0.005zM705.92 273.92c-5.373-0.347-9.6-4.791-9.6-10.221 0-0.007 0-0.013 0-0.020v-102.399c0.001-5.655 4.585-10.239 10.24-10.24h143.36c5.655 0.001 10.239 4.585 10.24 10.24v102.4c0.001 0.054 0.002 0.117 0.002 0.18 0 4.977-3.55 9.125-8.257 10.049-0.353 0.039-0.687 0.056-1.025 0.056s-0.672-0.016-1.002-0.048l-143.318 0.003c-0.095 0.003-0.207 0.005-0.32 0.005s-0.225-0.002-0.336-0.005zM184.32 253.44h122.88v-81.92h-122.88v81.92zM450.56 253.44h122.88v-81.92h-122.88v81.92zM716.8 253.44h122.88v-81.92h-122.88v81.92z" />
<glyph unicode="&#xe912;" glyph-name="calender2" d="M973.446 786.030h-178.016v102.446c0 4.637-3.753 8.392-8.392 8.392-4.637 0-8.391-3.754-8.391-8.392v-102.446h-258.256v102.446c0 4.637-3.753 8.392-8.392 8.392-4.637 0-8.391-3.754-8.391-8.392v-102.446h-258.265v102.446c0 4.637-3.753 8.392-8.391 8.392-4.639 0-8.392-3.754-8.392-8.392v-102.446h-178.016c-23.166 0-42.014-18.848-42.014-42.021v-702.854c0-23.175 18.848-42.021 42.014-42.021h922.899c23.174 0 42.021 18.846 42.021 42.021v702.854c0 23.173-18.847 42.021-42.021 42.021zM50.547 769.247h178.016v-101.627c0-4.64 3.753-8.392 8.392-8.392 4.637 0 8.391 3.752 8.391 8.392v101.627h258.265v-101.627c0-4.64 3.753-8.392 8.391-8.392 4.639 0 8.392 3.752 8.392 8.392v101.627h258.256v-101.627c0-4.64 3.753-8.392 8.391-8.392 4.639 0 8.392 3.752 8.392 8.392v101.627h178.016c13.915 0 25.24-11.325 25.24-25.238v-232.035h-973.37v232.035c0 13.913 11.317 25.238 25.231 25.238zM973.446 15.916h-922.899c-13.915 0-25.231 11.325-25.231 25.24v454.038h973.37v-454.038c0-13.915-11.325-25.24-25.24-25.24zM291.266 180.951h-108.625c-4.639 0-8.392-3.752-8.392-8.392 0-4.637 3.753-8.39 8.392-8.39h108.625c4.639 0 8.392 3.752 8.392 8.39 0 4.64-3.753 8.392-8.392 8.392zM291.266 345.972h-108.625c-4.639 0-8.392-3.754-8.392-8.392s3.753-8.392 8.392-8.392h108.625c4.639 0 8.392 3.754 8.392 8.392s-3.753 8.392-8.392 8.392zM566.313 180.951h-108.626c-4.637 0-8.391-3.752-8.391-8.392 0-4.637 3.753-8.39 8.391-8.39h108.626c4.637 0 8.391 3.752 8.391 8.39 0 4.64-3.753 8.392-8.391 8.392zM566.313 345.972h-108.626c-4.637 0-8.391-3.754-8.391-8.392s3.753-8.392 8.391-8.392h108.626c4.637 0 8.391 3.754 8.391 8.392s-3.753 8.392-8.391 8.392zM841.352 180.951h-108.626c-4.639 0-8.391-3.752-8.391-8.392 0-4.637 3.752-8.39 8.391-8.39h108.626c4.637 0 8.391 3.752 8.391 8.39 0 4.64-3.753 8.392-8.391 8.392zM841.352 345.972h-108.626c-4.639 0-8.391-3.754-8.391-8.392s3.752-8.392 8.391-8.392h108.626c4.637 0 8.391 3.754 8.391 8.392s-3.753 8.392-8.391 8.392z" />
<glyph unicode="&#xe913;" glyph-name="cards" d="M710.139 0.771l-470.361 235.175 327.583 655.155 453.891-235.358-311.113-654.972zM297.618 255.229l392.451-196.231 274.389 577.633-378.115 196.047-288.725-577.45zM304.397 1.234l-295.009 639.202 453.901 235.358 69.751-143.188-38.761-18.885-50.392 103.446-378.093-196.047 259.643-562.586 180.709 83.903 18.152-39.117zM542.504 274.922l-19.219 230.529 211.17 95.987 19.219-230.519-211.17-95.997zM568.783 478.774l11.598-139.253 127.795 58.077-11.598 139.264-127.795-58.088zM588.363 809.913l38.563-19.281-15.406-30.812-38.563 19.281 15.406 30.812zM133.906 624.994l15.406-30.815-38.567-19.281-15.406 30.815 38.567 19.281zM679.149 123.996l-15.683-31.367" />
<glyph unicode="&#xe914;" glyph-name="castle" d="M864.256 601.6v-80.896h-58.368v80.896h-88.064v143.36h-98.304v-112.64h-58.368v112.64h-38.912v51.2h79.872v61.44h-79.872c0 6.144-4.096 10.24-10.24 10.24s-10.24-4.096-10.24-10.24v-112.64h-38.912v-112.64h-58.368v112.64h-98.304v-143.36h-88.064v-80.896h-58.368v80.896h-108.544v-573.44h921.6v573.44h-108.544zM581.632 837.12v-20.48h-59.392v20.48h59.392zM306.176 48.64h-234.496v189.44h30.72c5.12 0 10.24 4.096 10.24 10.24s-4.096 10.24-10.24 10.24h-30.72v322.56h68.608v-80.896h98.304v80.896h68.608v-532.48zM437.248 48.64v189.44h160.768v-189.44h-160.768zM530.432 320c33.792-2.048 60.416-27.648 65.536-61.44h-65.536v61.44zM510.976 258.56h-72.704c5.12 34.816 33.792 61.44 69.632 61.44h4.096v-61.44zM617.472 48.64v199.68c0 51.2-39.936 92.16-90.112 92.16h-20.48c-50.176 0-90.112-40.96-90.112-92.16v-199.68h-91.136v261.12h26.624c5.12 0 10.24 4.096 10.24 10.24s-4.096 10.24-10.24 10.24h-26.624v394.24h58.368v-112.64h98.304v112.64h58.368v-112.64h98.304v112.64h58.368v-404.48h-28.672c-5.12 0-10.24-4.096-10.24-10.24s4.096-10.24 10.24-10.24h28.672v-250.88h-79.872zM717.824 48.64v532.48h68.608v-80.896h98.304v80.896h67.584v-373.76h-32.768c-5.12 0-10.24-4.096-10.24-10.24s4.096-10.24 10.24-10.24h32.768v-138.24h-234.496zM431.104 559.616h-2.048c-27.648 0-50.176-22.528-50.176-51.2v-103.424h102.4v103.424c-1.024 27.648-23.552 51.2-50.176 51.2zM460.8 425.472h-62.464v82.944c0 17.408 13.312 30.72 29.696 30.72h2.048c16.384 0 29.696-13.312 29.696-30.72v-82.944zM190.464 459.264h-2.048c-27.648 0-50.176-22.528-50.176-51.2v-103.424h102.4v103.424c0 28.672-22.528 51.2-50.176 51.2zM220.16 325.12h-62.464v82.944c0 17.408 13.312 30.72 29.696 30.72h2.048c16.384 0 29.696-13.312 29.696-30.72v-82.944zM641.024 508.416c0 28.672-22.528 51.2-50.176 51.2h-2.048c-27.648 0-50.176-22.528-50.176-51.2v-103.424h102.4v103.424zM620.544 425.472h-62.464v82.944c0 17.408 13.312 30.72 29.696 30.72h2.048c16.384 0 29.696-13.312 29.696-30.72v-82.944zM831.488 459.264h-2.048c-27.648 0-50.176-22.528-50.176-51.2v-103.424h102.4v103.424c0 28.672-22.528 51.2-50.176 51.2zM861.184 325.12h-62.464v82.944c0 17.408 13.312 30.72 29.696 30.72h2.048c16.384 0 29.696-13.312 29.696-30.72v-82.944zM142.336 197.12c0-6.144-4.096-10.24-10.24-10.24h-33.792c-5.12 0-10.24 4.096-10.24 10.24s4.096 10.24 10.24 10.24h33.792c6.144 0 10.24-4.096 10.24-10.24zM393.216 268.8c0-6.144-4.096-10.24-10.24-10.24h-33.792c-5.12 0-10.24 4.096-10.24 10.24s4.096 10.24 10.24 10.24h33.792c5.12 0 10.24-4.096 10.24-10.24zM673.792 350.72h-33.792c-5.12 0-10.24 4.096-10.24 10.24s4.096 10.24 10.24 10.24h33.792c5.12 0 10.24-4.096 10.24-10.24s-5.12-10.24-10.24-10.24z" />
<glyph unicode="&#xe915;" glyph-name="check" d="M884.736 697.856c-8.192 8.192-20.48 8.192-28.672 0l-456.704-456.704-231.424 231.424c-8.192 8.192-20.48 8.192-28.672 0s-8.192-20.48 0-28.672l245.76-245.76c4.096-4.096 9.216-6.144 14.336-6.144s10.24 2.048 14.336 6.144l471.040 471.040c8.192 8.192 8.192 20.48 0 28.672z" />
<glyph unicode="&#xe916;" glyph-name="city-buildings" d="M921.6 42.496h-92.16v829.44h-1.024v33.792h-110.592v-33.792h-112.64v-408.576h-203.776v-419.84h-36.864v97.28c0 3.072-2.048 5.12-5.12 5.12s-5.12-2.048-5.12-5.12v-97.28h-40.96v97.28c0 3.072-2.048 5.12-5.12 5.12s-5.12-2.048-5.12-5.12v-97.28h-40.96v97.28c0 3.072-2.048 5.12-5.12 5.12s-5.12-2.048-5.12-5.12v-97.28h-40.96v97.28c0 3.072-2.048 5.12-5.12 5.12s-5.12-2.048-5.12-5.12v-98.304h-40.96v97.28c0 3.072-2.048 5.12-5.12 5.12s-5.12-2.048-5.12-5.12v-97.28h-40.96v97.28c0 3.072-2.048 5.12-5.12 5.12s-5.12-2.048-5.12-5.12v-98.304c0-1.024 0-2.048 1.024-2.048 0-1.024-1.024-1.024-1.024-2.048 0-3.072 2.048-5.12 5.12-5.12h509.952c1.024 0 1.024 0 2.048 0s1.024 0 2.048 0h199.68c1.024 0 1.024 0 2.048 0s1.024 0 2.048 0h100.352c3.072 0 5.12 2.048 5.12 5.12s-2.048 5.12-5.12 5.12zM625.664 850.432h183.296v-808.96h-183.296v808.96zM456.704 414.208h113.664c3.072 0 5.12-2.048 5.12-5.12s-2.048-5.12-5.12-5.12h-113.664c-3.072 0-5.12 2.048-5.12 5.12s3.072 5.12 5.12 5.12zM533.504 179.712v41.984h41.984v-41.984h-41.984zM575.488 150.016v-41.984h-41.984v41.984h41.984zM533.504 251.392v41.984h41.984v-41.984h-41.984zM533.504 323.072v41.984h41.984v-41.984h-41.984zM451.584 365.056h41.984v-41.984h-41.984v41.984zM451.584 293.376h41.984v-41.984h-41.984v41.984zM451.584 221.696h41.984v-41.984h-41.984v41.984zM451.584 150.016h41.984v-41.984h-41.984v41.984zM697.344 722.432h-41.984v-41.984h41.984v41.984zM687.104 690.688h-21.504v21.504h21.504v-21.504zM779.264 722.432h-41.984v-41.984h41.984v41.984zM769.024 690.688h-21.504v21.504h21.504v-21.504zM697.344 794.112h-41.984v-41.984h41.984v41.984zM687.104 762.368h-21.504v21.504h21.504v-21.504zM779.264 794.112h-41.984v-41.984h41.984v41.984zM769.024 762.368h-21.504v21.504h21.504v-21.504zM697.344 650.752h-41.984v-41.984h41.984v41.984zM687.104 619.008h-21.504v21.504h21.504v-21.504zM779.264 650.752h-41.984v-41.984h41.984v41.984zM769.024 619.008h-21.504v21.504h21.504v-21.504zM697.344 579.072h-41.984v-41.984h41.984v41.984zM687.104 547.328h-21.504v21.504h21.504v-21.504zM779.264 579.072h-41.984v-41.984h41.984v41.984zM769.024 547.328h-21.504v21.504h21.504v-21.504zM697.344 507.392h-41.984v-41.984h41.984v41.984zM687.104 475.648h-21.504v21.504h21.504v-21.504zM779.264 507.392h-41.984v-41.984h41.984v41.984zM769.024 475.648h-21.504v21.504h21.504v-21.504zM697.344 435.712h-41.984v-41.984h41.984v41.984zM687.104 403.968h-21.504v21.504h21.504v-21.504zM779.264 435.712h-41.984v-41.984h41.984v41.984zM769.024 403.968h-21.504v21.504h21.504v-21.504zM697.344 364.032h-41.984v-41.984h41.984v41.984zM687.104 332.288h-21.504v21.504h21.504v-21.504zM779.264 364.032h-41.984v-41.984h41.984v41.984zM769.024 332.288h-21.504v21.504h21.504v-21.504zM697.344 292.352h-41.984v-41.984h41.984v41.984zM687.104 260.608h-21.504v21.504h21.504v-21.504zM779.264 292.352h-41.984v-41.984h41.984v41.984zM769.024 260.608h-21.504v21.504h21.504v-21.504zM697.344 220.672h-41.984v-41.984h41.984v41.984zM687.104 188.928h-21.504v21.504h21.504v-21.504zM779.264 220.672h-41.984v-41.984h41.984v41.984zM769.024 188.928h-21.504v21.504h21.504v-21.504zM697.344 148.992h-41.984v-41.984h41.984v41.984zM687.104 117.248h-21.504v21.504h21.504v-21.504zM779.264 148.992h-41.984v-41.984h41.984v41.984zM769.024 117.248h-21.504v21.504h21.504v-21.504zM182.272 548.352c46.080 0 83.968 37.888 83.968 83.968s-37.888 83.968-83.968 83.968-83.968-37.888-83.968-83.968 36.864-83.968 83.968-83.968zM378.88 558.592h-25.6c-3.072 0-5.12-2.048-5.12-5.12s2.048-5.12 5.12-5.12h25.6c3.072 0 5.12 2.048 5.12 5.12s-3.072 5.12-5.12 5.12zM424.96 558.592c-3.072 0-5.12-2.048-5.12-5.12s2.048-5.12 5.12-5.12h25.6c3.072 0 5.12 2.048 5.12 5.12s-2.048 5.12-5.12 5.12h-25.6zM406.528 602.624c0 3.072-2.048 5.12-5.12 5.12s-5.12-2.048-5.12-5.12v-25.6c0-3.072 2.048-5.12 5.12-5.12s5.12 2.048 5.12 5.12v25.6zM401.408 536.064c-3.072 0-5.12-2.048-5.12-5.12v-25.6c0-3.072 2.048-5.12 5.12-5.12s5.12 2.048 5.12 5.12v25.6c0 3.072-2.048 5.12-5.12 5.12zM224.256 441.856l-13.312 13.312c-2.048 2.048-5.12 2.048-7.168 0s-2.048-5.12 0-7.168l13.312-13.312c1.024-1.024 2.048-1.024 4.096-1.024s3.072 0 4.096 1.024c1.024 1.024 1.024 5.12-1.024 7.168zM248.832 417.28c-2.048 2.048-5.12 2.048-7.168 0s-2.048-5.12 0-7.168l13.312-13.312c1.024-1.024 2.048-1.024 4.096-1.024s3.072 0 4.096 1.024c2.048 2.048 2.048 5.12 0 7.168l-14.336 13.312zM262.144 455.168c-2.048 2.048-5.12 2.048-7.168 0l-13.312-13.312c-2.048-2.048-2.048-5.12 0-7.168 1.024-1.024 2.048-1.024 4.096-1.024s3.072 0 4.096 1.024l13.312 13.312c1.024 2.048 1.024 5.12-1.024 7.168zM217.088 417.28l-13.312-13.312c-2.048-2.048-2.048-5.12 0-7.168 1.024-1.024 2.048-1.024 4.096-1.024s3.072 0 4.096 1.024l13.312 13.312c2.048 2.048 2.048 5.12 0 7.168s-6.144 2.048-8.192 0zM307.2 754.176c3.072-1.024 5.12 1.024 6.144 4.096 2.048 9.216 7.168 18.432 13.312 24.576 20.48 20.48 54.272 20.48 73.728 0 4.096-4.096 7.168-8.192 9.216-12.288-10.24-2.048-19.456-7.168-26.624-14.336-2.048-2.048-2.048-5.12 0-7.168 1.024-1.024 2.048-1.024 4.096-1.024s3.072 0 4.096 1.024c7.168 7.168 17.408 11.264 27.648 12.288 12.288 1.024 23.552-4.096 31.744-12.288 16.384-16.384 16.384-43.008 0-59.392s-41.984-16.384-58.368 0c6.144 3.072 12.288 7.168 17.408 12.288 2.048 2.048 2.048 5.12 0 7.168s-5.12 2.048-7.168 0c-5.12-5.12-12.288-9.216-20.48-12.288-19.456-6.144-39.936-2.048-54.272 12.288-2.048 2.048-5.12 5.12-7.168 8.192-2.048 2.048-5.12 3.072-7.168 1.024s-3.072-5.12-1.024-7.168c2.048-3.072 5.12-7.168 8.192-10.24 12.288-12.288 27.648-18.432 44.032-18.432 6.144 0 11.264 1.024 17.408 2.048 1.024-1.024 2.048-2.048 3.072-3.072 10.24-10.24 23.552-15.36 36.864-15.36s26.624 5.12 36.864 15.36c20.48 20.48 20.48 53.248 0 73.728-9.216 9.216-22.528 14.336-35.84 15.36-3.072 7.168-7.168 13.312-13.312 19.456-24.576 24.576-64.512 24.576-89.088 0-8.192-8.192-13.312-18.432-16.384-29.696-2.048-3.072 0-6.144 3.072-6.144zM461.824 283.136h21.504v-21.504h-21.504v21.504zM543.744 283.136h21.504v-21.504h-21.504v21.504zM461.824 354.816h21.504v-21.504h-21.504v21.504zM543.744 211.456h21.504v-21.504h-21.504v21.504zM461.824 139.776h21.504v-21.504h-21.504v21.504zM543.744 139.776h21.504v-21.504h-21.504v21.504zM543.744 354.816h21.504v-21.504h-21.504v21.504zM461.824 211.456h21.504v-21.504h-21.504v21.504z" />
<glyph unicode="&#xe917;" glyph-name="cleient" d="M569.661 384.666c-2.355 0-4.342-1.167-5.97-2.765l-0.225 0.236c-0.236-0.225-24.074-22.907-63.14-22.907s-62.904 22.682-63.13 22.907l-0.225-0.236c-1.628 1.587-3.615 2.765-5.97 2.765-46.387 0-82.862-14.971-108.431-44.503-53.996-62.372-39.639-166.738-38.994-171.151 0.625-4.352 4.362-7.588 8.765-7.588h415.98c4.403 0 8.141 3.236 8.765 7.588 0.645 4.413 15.012 108.78-38.994 171.151-25.569 29.542-62.044 44.503-108.431 44.503zM500.337 341.514c19.569 0 35.584 4.782 47.933 10.353l-47.933-99.297-47.933 99.297c12.349-5.571 28.365-10.353 47.933-10.353zM700.365 179.149h-400.056c-2.12 24.474-5.14 102.339 35.717 149.463 21.043 24.279 51.118 37.13 89.467 38.257l66.867-138.527c2.959-6.124 12.995-6.124 15.954 0l66.867 138.527c38.349-1.116 68.434-13.978 89.467-38.257 40.868-47.124 37.837-124.979 35.717-149.463zM500.337 414.577c64.768 0 117.463 52.695 117.463 117.463s-52.695 117.473-117.463 117.473-117.463-52.705-117.463-117.473c0-64.768 52.685-117.463 117.463-117.463zM500.337 631.788c54.999 0 99.748-44.749 99.748-99.748s-44.739-99.738-99.748-99.738c-54.999 0-99.738 44.739-99.738 99.738-0.010 54.999 44.728 99.748 99.738 99.748zM872.612 451.574c-18.565 21.443-44.984 32.317-78.52 32.317-0.133 0-0.236-0.102-0.369-0.102-1.311-0.051-2.56-0.451-3.748-1.075-0.379-0.205-0.696-0.42-1.044-0.676-0.338-0.246-0.727-0.369-1.034-0.666-0.154-0.143-16.333-15.442-42.772-15.442-26.419 0-42.598 15.299-42.721 15.421-0.317 0.317-0.727 0.451-1.075 0.696-0.338 0.246-0.635 0.451-1.004 0.645-1.28 0.686-2.632 1.147-4.045 1.167-0.041 0-0.061 0.031-0.102 0.031-0.020 0-0.031 0-0.041 0-0.041 0-0.072 0-0.102-0.010-50.678-0.051-85.32-25.272-100.168-72.95-1.454-4.669 1.157-9.636 5.827-11.090 4.649-1.444 9.626 1.147 11.090 5.827 11.95 38.39 38.144 58.685 77.885 60.385l46.469-96.276c1.475-3.062 4.577-5.007 7.977-5.007s6.502 1.946 7.977 5.007l46.479 96.276c25.508-1.085 45.527-9.841 59.576-26.030 27.013-31.15 26.194-82.074 24.791-101.233h-156.119c-4.895 0-8.858-3.963-8.858-8.858s3.963-8.858 8.858-8.858h164.178c4.403 0 8.141 3.236 8.765 7.598 0.451 3.154 10.752 77.978-28.15 122.9zM745.134 394.015l-28.6 59.259c7.997-2.867 17.49-5.059 28.6-5.059 11.121 0 20.613 2.191 28.611 5.059l-28.611-59.259zM745.134 499.804c47.165 0 85.535 38.369 85.535 85.535s-38.369 85.535-85.535 85.535c-47.165 0-85.535-38.369-85.535-85.535s38.38-85.535 85.535-85.535zM745.134 653.158c37.396 0 67.82-30.423 67.82-67.82s-30.423-67.82-67.82-67.82c-37.396 0-67.82 30.423-67.82 67.82 0.010 37.396 30.433 67.82 67.82 67.82zM272.855 338.79h-156.16c-1.423 19.118-2.284 69.949 24.75 101.181 14.060 16.23 34.099 24.996 59.628 26.092l46.479-96.276c2.959-6.124 12.995-6.124 15.954 0l46.469 96.276c39.741-1.7 65.935-21.996 77.885-60.385 1.464-4.669 6.4-7.291 11.090-5.827 4.669 1.454 7.281 6.42 5.827 11.090-14.868 47.729-49.551 72.96-100.311 72.96-0.133 0-0.236-0.102-0.358-0.102-1.311-0.051-2.56-0.451-3.748-1.075-0.379-0.205-0.696-0.41-1.044-0.676-0.338-0.246-0.727-0.369-1.034-0.666-0.154-0.143-16.333-15.442-42.762-15.442-26.399 0-42.568 15.258-42.772 15.442-0.307 0.297-0.707 0.43-1.044 0.676s-0.645 0.451-1.014 0.655c-1.27 0.686-2.601 1.126-4.004 1.157-0.051 0-0.082 0.041-0.133 0.041-0.020 0-0.041 0-0.061 0-0.031 0-0.061 0-0.092 0-33.464-0.031-59.832-10.906-78.367-32.307-38.892-44.923-28.59-119.747-28.14-122.911 0.625-4.352 4.362-7.588 8.765-7.588h164.178c4.895 0 8.858 3.963 8.858 8.858 0.031 4.874-3.932 8.827-8.837 8.827zM255.529 448.215c11.121 0 20.613 2.191 28.6 5.059l-28.6-59.259-28.611 59.259c7.997-2.867 17.49-5.059 28.611-5.059zM255.529 499.804c47.165 0 85.535 38.369 85.535 85.535s-38.369 85.535-85.535 85.535c-47.165 0-85.535-38.369-85.535-85.535s38.369-85.535 85.535-85.535zM255.529 653.158c37.396 0 67.82-30.423 67.82-67.82s-30.423-67.82-67.82-67.82c-37.396 0-67.82 30.423-67.82 67.82s30.423 67.82 67.82 67.82z" />
<glyph unicode="&#xe918;" glyph-name="close" d="M825.344 761.344c-179.2 179.2-468.992 179.2-648.192 0s-179.2-468.992 0-648.192 468.992-179.2 648.192 0 179.2 470.016 0 648.192zM199.68 135.68c-166.912 166.912-166.912 437.248 0 603.136s437.248 166.912 603.136 0 166.912-437.248 0-603.136-436.224-165.888-603.136 0zM647.168 314.88l-122.88 122.88 122.88 122.88c7.168 7.168 7.168 15.36 0 22.528s-15.36 7.168-22.528 0l-122.88-122.88-122.88 122.88c-7.168 7.168-15.36 7.168-22.528 0s-7.168-15.36 0-22.528l122.88-122.88-122.88-122.88c-7.168-7.168-7.168-15.36 0-22.528s15.36-7.168 22.528 0l122.88 122.88 122.88-122.88c7.168-7.168 15.36-7.168 22.528 0 6.144 7.168 6.144 15.36 0 22.528z" />
<glyph unicode="&#xe919;" glyph-name="close2" d="M713.728 260.608c9.472-9.492-4.69-23.992-14.336-14.336l-187.392 187.392-187.392-187.392c-9.605-9.605-23.818 4.854-14.336 14.336l187.392 187.392-187.392 187.392c-9.544 9.554 4.792 23.88 14.336 14.336l187.392-187.392 187.392 187.392c9.554 9.544 23.869-4.782 14.336-14.336l-187.392-187.392 187.392-187.392z" />
<glyph unicode="&#xe91b;" glyph-name="dollar" d="M526.336 92.672c6.144 0 10.24 4.096 10.24 10.24v52.224c81.92 2.048 148.48 69.632 148.48 152.576s-66.56 150.528-148.48 152.576v266.24c68.608-5.12 122.88-62.464 122.88-132.096 0-6.144 4.096-10.24 10.24-10.24s10.24 4.096 10.24 10.24c0 80.896-63.488 147.456-143.36 152.576v52.224c0 6.144-4.096 10.24-10.24 10.24s-10.24-4.096-10.24-10.24v-52.224c-79.872-5.12-143.36-71.68-143.36-152.576s63.488-147.456 143.36-152.576v-265.216c-65.536 8.192-116.736 64.512-116.736 132.096 0 6.144-4.096 10.24-10.24 10.24s-10.24-4.096-10.24-10.24c0-78.848 60.416-144.384 137.216-152.576v-53.248c0-5.12 5.12-10.24 10.24-10.24zM665.6 308.736c0-71.68-57.344-130.048-128-132.096v264.192c70.656-2.048 128-60.416 128-132.096zM394.24 594.432c0 69.632 54.272 126.976 122.88 132.096v-264.192c-69.632 5.12-122.88 62.464-122.88 132.096z" />
<glyph unicode="&#xe91c;" glyph-name="dollar-round" d="M500.736 393.728v-117.76c-26.624 6.144-46.080 29.696-46.080 57.344 0 6.144-4.096 10.24-10.24 10.24s-10.24-4.096-10.24-10.24c0-39.936 28.672-72.704 66.56-78.848v-21.504c0-6.144 4.096-10.24 10.24-10.24s10.24 4.096 10.24 10.24v20.48c39.936 4.096 72.704 37.888 72.704 78.848s-31.744 75.776-72.704 78.848v119.808c27.648-5.12 49.152-28.672 49.152-58.368 0-6.144 4.096-10.24 10.24-10.24s10.24 4.096 10.24 10.24c0 39.936-30.72 73.728-69.632 78.848v20.48c0 6.144-4.096 10.24-10.24 10.24s-10.24-4.096-10.24-10.24v-20.48c-38.912-5.12-69.632-38.912-69.632-78.848s29.696-73.728 69.632-78.848zM572.416 333.312c0-29.696-22.528-55.296-52.224-58.368v117.76c29.696-4.096 52.224-28.672 52.224-59.392zM500.736 530.944v-116.736c-27.648 5.12-49.152 28.672-49.152 58.368s21.504 53.248 49.152 58.368zM187.392 383.488c0-179.2 145.408-324.608 324.608-324.608s324.608 145.408 324.608 324.608c0 130.048-76.8 241.664-186.368 293.888l32.768 151.552c1.024 3.072 0 6.144-2.048 8.192s-5.12 4.096-8.192 4.096h-320.512c-3.072 0-6.144-1.024-8.192-4.096-2.048-2.048-3.072-5.12-2.048-8.192l32.768-151.552c-110.592-52.224-187.392-163.84-187.392-293.888zM364.544 820.736h294.912l-28.672-135.168c-36.864 14.336-76.8 22.528-118.784 22.528s-81.92-8.192-118.784-22.528l-28.672 135.168zM512 687.616c167.936 0 304.128-136.192 304.128-304.128s-136.192-304.128-304.128-304.128-304.128 136.192-304.128 304.128c0 167.936 136.192 304.128 304.128 304.128z" />
<glyph unicode="&#xe91d;" glyph-name="doller2" d="M650.895 346.245c0 62.218-57.938 113.121-130.744 116.767v172.677c37.274-2.212 70.584-19.384 88.166-46.254 4.639-7.107 14.193-9.093 21.258-4.444 7.096 4.639 9.093 14.162 4.444 21.258-23.153 35.379-66.304 57.815-113.869 60.129v81.582c0 8.479-6.881 15.36-15.36 15.36s-15.36-6.881-15.36-15.36v-82.821c-65.884-9.175-116.337-57.375-116.337-115.415s50.463-106.209 116.337-115.384v-172.431c-31.283 5.294-58.46 21.279-73.718 44.646-4.649 7.096-14.162 9.093-21.258 4.465-7.096-4.639-9.103-14.162-4.465-21.258 20.767-31.795 57.682-53.197 99.441-58.941v-82.801c0-8.479 6.881-15.36 15.36-15.36s15.36 6.881 15.36 15.36v81.459c72.806 3.656 130.744 54.548 130.744 116.767zM403.825 549.734c0 41.431 36.762 76.114 85.617 84.46v-168.888c-48.865 8.356-85.617 43.018-85.617 84.429zM520.161 260.188v172.124c55.859-3.4 100.024-40.653 100.024-86.057s-44.165-82.668-100.024-86.067z" />
<glyph unicode="&#xe91e;" glyph-name="doller-card" d="M70.417 663.7v-483.556h900.267v483.556h-900.267zM959.306 191.522h-877.511v460.8h877.511v-460.8zM520.556 259.083c89.793 0 162.839 73.057 162.839 162.839 0 89.793-73.057 162.839-162.839 162.839-89.793 0-162.839-73.045-162.839-162.839-0.011-89.793 73.045-162.839 162.839-162.839zM520.556 573.394c83.524 0 151.461-67.948 151.461-151.461 0-83.524-67.948-151.461-151.461-151.461s-151.461 67.948-151.461 151.461c-0.011 83.502 67.948 151.461 151.461 151.461zM499.666 351.596c-4.619 2.287-8.613 5.313-11.992 9.023-3.379 3.686-5.973 7.999-7.782 12.846s-2.719 10.115-2.719 15.713h-16.077c0.159-1.98 0.33-3.959 0.489-5.951 0.171-1.98 0.41-4.028 0.74-6.155 2.97-13.87 9.023-24.246 18.17-31.152 9.148-6.929 20.719-10.798 34.725-11.605v-18.796h11.378v18.796c6.417 0.159 12.846 1.286 19.263 3.447 6.44 2.139 12.151 5.2 17.203 9.136 4.995 3.982 9.091 8.772 12.22 14.461s4.688 12.151 4.688 19.422c0 9.375-1.263 17.089-3.846 23.086-2.537 6.019-6.11 10.934-10.729 14.711-4.597 3.8-10.217 6.849-16.828 9.159-6.576 2.31-13.915 4.449-21.982 6.417v65.764c4.449 0 8.602-0.74 12.47-2.219 3.891-1.49 7.27-3.55 10.16-6.178 2.867-2.64 5.177-5.803 6.906-9.512 1.729-3.698 2.606-7.794 2.606-12.231h16.065c-0.353 6.918-1.729 13.096-4.221 18.534-2.446 5.45-5.825 10.012-10.115 13.722s-9.33 6.508-15.087 8.397c-5.78 1.9-12.026 2.844-18.773 2.844v15.076h-11.378v-15.076c-6.758 0.159-13.096-0.785-19.035-2.844-5.928-2.059-11.162-5.052-15.69-9.023-4.528-3.948-8.124-8.727-10.763-14.336-2.628-5.598-3.959-11.867-3.959-18.785 0-7.748 1.274-14.256 3.834-19.524 2.56-5.279 6.053-9.694 10.513-13.244 4.449-3.538 9.682-6.417 15.69-8.647s12.402-4.153 19.16-5.803v-73.421c-5.575 0.33-10.684 1.638-15.303 3.948zM526.62 418.577c5.268-1.138 10.16-2.469 14.689-3.959 4.528-1.468 8.488-3.493 11.867-6.042s6.064-5.871 8.067-9.91c1.957-4.028 2.958-9.091 2.958-15.178 0-5.291-1.001-10.115-2.958-14.461-2.002-4.358-4.71-8.135-8.181-11.241-3.47-3.129-7.464-5.621-12.004-7.418-4.528-1.82-9.33-2.708-14.45-2.708v70.918zM502.022 440.593c-4.039 1.479-7.589 3.425-10.627 5.803-3.049 2.401-5.45 5.404-7.168 9.023-1.729 3.618-2.606 8.158-2.606 13.596 0 4.608 0.865 8.806 2.606 12.607 1.729 3.789 4.119 7.054 7.168 9.762 3.049 2.719 6.588 4.813 10.627 6.303 4.028 1.479 8.363 2.219 12.982 2.219v-63.534c-4.631 1.331-8.954 2.731-12.982 4.221z" />
<glyph unicode="&#xe91f;" glyph-name="dots-vertical" d="M640 832c0-70.692-57.308-128-128-128s-128 57.308-128 128c0 70.692 57.308 128 128 128s128-57.308 128-128zM640 64c0-70.692-57.308-128-128-128s-128 57.308-128 128c0 70.692 57.308 128 128 128s128-57.308 128-128zM640 448c0-70.692-57.308-128-128-128s-128 57.308-128 128c0 70.692 57.308 128 128 128s128-57.308 128-128z" />
<glyph unicode="&#xe920;" glyph-name="double-arrow-down" d="M510.72 806.72c-5.082-0.655-8.968-4.954-8.968-10.162 0-0.14 0.003-0.28 0.008-0.418l-0.001-546.22-145.92 164.16c-1.888 2.171-4.655 3.536-7.741 3.536-0.204 0-0.406-0.006-0.606-0.018-5.457-0.215-9.822-4.714-9.822-10.232 0-2.732 1.070-5.215 2.814-7.051l163.836-184.316c1.886-2.13 4.627-3.466 7.68-3.466s5.794 1.336 7.671 3.456l163.849 184.331c1.633 1.817 2.631 4.232 2.631 6.88 0 5.695-4.616 10.311-10.311 10.311-3.046 0-5.784-1.321-7.672-3.422l-145.928-164.169v546.24c0.005 0.119 0.008 0.259 0.008 0.4 0 5.656-4.585 10.241-10.241 10.241-0.454 0-0.9-0.029-1.338-0.087zM347.52 294.72c-5.485-0.216-9.85-4.715-9.85-10.234 0-2.732 1.070-5.215 2.814-7.051l163.836-184.316c1.886-2.13 4.627-3.466 7.68-3.466s5.794 1.336 7.671 3.456l163.849 184.331c1.633 1.817 2.631 4.232 2.631 6.88 0 5.695-4.616 10.311-10.311 10.311-3.046 0-5.784-1.321-7.672-3.422l-156.168-175.689-156.16 175.68c-1.888 2.171-4.655 3.536-7.741 3.536-0.204 0-0.406-0.006-0.606-0.018z" />
<glyph unicode="&#xe921;" glyph-name="double-down-arrow" d="M273.275 479.908c3 4.772 9.349 6.205 14.121 3.185l202.22-127.898 202.22 127.898c4.792 3.041 11.11 1.597 14.131-3.185s1.597-11.1-3.185-14.121l-207.124-131c-1.7-1.075-3.594-1.587-5.468-1.587-0.195 0-0.379 0.061-0.573 0.072-0.195-0.010-0.379-0.072-0.573-0.072-1.874 0-3.768 0.512-5.468 1.587l-207.114 131.011c-4.782 3.021-6.216 9.339-3.185 14.111zM273.275 558.029c3 4.772 9.349 6.205 14.121 3.185l202.22-127.898 202.22 127.898c4.792 3.041 11.11 1.597 14.131-3.185s1.597-11.1-3.185-14.121l-207.124-131c-1.7-1.075-3.594-1.587-5.468-1.587-0.195 0-0.379 0.061-0.573 0.072-0.195-0.010-0.379-0.072-0.573-0.072-1.874 0-3.768 0.512-5.468 1.587l-207.114 131c-4.782 3.021-6.216 9.349-3.185 14.121z" />
<glyph unicode="&#xe922;" glyph-name="download" d="M80 785.92c-4.771-0.935-8.322-5.082-8.322-10.060 0-0.063 0.001-0.127 0.002-0.19v-348.151c0.001-5.655 4.585-10.239 10.24-10.24h256c0.043-0.001 0.094-0.001 0.145-0.001 5.656 0 10.241 4.585 10.241 10.241s-4.585 10.241-10.241 10.241c-0.051 0-0.102 0-0.152-0.001h-245.752v327.68h839.68v-327.68h-245.76c-0.043 0.001-0.094 0.001-0.145 0.001-5.656 0-10.241-4.585-10.241-10.241s4.585-10.241 10.241-10.241c0.051 0 0.102 0 0.152 0.001h255.992c5.655 0.001 10.239 4.585 10.24 10.24v348.16c-0.001 5.655-4.585 10.239-10.24 10.24h-860.16c-0.288 0.029-0.622 0.045-0.96 0.045s-0.672-0.016-1.002-0.048zM511.040 581.44c-0.504-0.093-0.934-0.203-1.352-0.341-4.541-1.039-7.931-5.11-7.931-9.973 0-0.087 0.001-0.173 0.003-0.259v-337.907c-0.001-0.043-0.001-0.094-0.001-0.145 0-5.656 4.585-10.241 10.241-10.241s10.241 4.585 10.241 10.241c0 0.051 0 0.102-0.001 0.152v337.912c0.004 0.109 0.006 0.236 0.006 0.365 0 5.656-4.585 10.241-10.241 10.241-0.34 0-0.676-0.017-1.008-0.049zM633.92 274.24c-2.865-0.287-5.35-1.716-7.024-3.819l-115.216-134.421-114.88 134.4c-1.882 2.639-4.932 4.339-8.379 4.339-5.666 0-10.26-4.594-10.26-10.26 0-2.967 1.259-5.64 3.273-7.513l122.886-143.366c1.886-2.13 4.627-3.466 7.68-3.466s5.794 1.336 7.671 3.456l122.889 143.371c1.704 1.824 2.75 4.281 2.75 6.983 0 3.449-1.705 6.5-4.318 8.356-1.701 1.252-3.799 1.991-6.069 1.991-0.353 0-0.702-0.018-1.045-0.053z" />
<glyph unicode="&#xe923;" glyph-name="envelope-o" d="M92.16 765.44c-11.169 0-20.48-9.311-20.48-20.48v-593.92c0-11.169 9.311-20.48 20.48-20.48h839.68c11.169 0 20.48 9.311 20.48 20.48v593.92c0 11.169-9.311 20.48-20.48 20.48h-839.68zM92.16 744.96h839.68v-5.44l-419.84-339.84-419.84 339.84v5.44zM92.16 713.6l413.44-334.72c1.736-1.399 3.969-2.246 6.4-2.246s4.664 0.847 6.42 2.261l413.42 334.705v-562.56h-839.68v562.56z" />
<glyph unicode="&#xe924;" glyph-name="eye" d="M512 683.52c197.632 0 358.4-235.52 358.4-235.52s-160.768-235.52-358.4-235.52-358.4 235.52-358.4 235.52 160.768 235.52 358.4 235.52zM512 724.48c-217.088 0-385.024-242.688-392.192-252.928-9.216-14.336-9.216-31.744 0-46.080 7.168-11.264 175.104-253.952 392.192-253.952s385.024 242.688 392.192 252.928c9.216 14.336 9.216 31.744 0 46.080-7.168 11.264-175.104 253.952-392.192 253.952v0zM512 560.64c62.464 0 112.64-50.176 112.64-112.64s-50.176-112.64-112.64-112.64-112.64 50.176-112.64 112.64 50.176 112.64 112.64 112.64zM512 601.6c-84.992 0-153.6-68.608-153.6-153.6s68.608-153.6 153.6-153.6 153.6 68.608 153.6 153.6-68.608 153.6-153.6 153.6v0z" />
<glyph unicode="&#xe925;" glyph-name="facebook" d="M634.962 852.47h5.12v30.72h-5.12c-168.796 0-199.68-84.49-199.68-250.89v-117.75h-92.16v-30.72h92.16v-471.050h30.72v471.050h174.080v30.72h-174.080v117.75c0 155.259 23.48 220.17 168.96 220.17z" />
<glyph unicode="&#xe926;" glyph-name="field" d="M11 736c-6.609-2.165-11.345-9.054-11-16v-96c-0.042-0.666-0.042-1.334 0-2v-446c0.001-8.377 7.623-15.999 16-16h992c8.377 0.001 15.999 7.623 16 16v219c0.674 2.61 0.674 5.39 0 8v88c0.674 2.61 0.674 5.39 0 8v221c-0.001 8.377-7.623 15.999-16 16h-992c-1.653 0.261-3.347 0.261-5 0zM32 704h224v-511.5h32v511.5h208v-146c-54.24-7.718-96-53.691-96-110 0-56.313 41.749-103.291 96-111v-144.5h32v144.5c53.914 8.009 96 54.927 96 111 0 56.070-42.094 101.984-96 110v146h208v-511.5h32v511.5h224v-67c-90.875-15.125-160-93.946-160-189 0-95.075 69.092-174.89 160-190v-65.5h-960v65.5c90.908 15.11 160 94.925 160 190 0 95.054-69.125 173.875-160 189zM32 605c73.178-14.773 128-79.322 128-157 0-77.531-55.057-141.173-128-156v92h48c8.377 0.001 15.999 7.623 16 16v96c-0.001 8.377-7.623 15.999-16 16h-48zM992 605v-93h-48c-0.997 0.093-2.003 0.093-3 0-7.334-1.399-13.132-8.534-13-16v-96c0.001-8.377 7.623-15.999 16-16h48v-92c-72.943 14.827-128 78.469-128 156 0 77.678 54.822 142.227 128 157zM496 526v-157c-36.545 7.426-64 40.175-64 79 0 38.828 27.455 70.574 64 78zM528 526c36.545-7.426 64-39.172 64-78 0-38.825-27.455-71.574-64-79v127zM32 480h32v-64h-32zM960 480h32v-64h-32z" />
<glyph unicode="&#xe927;" glyph-name="gift" d="M996.742 654.944h-447.168c76.951 30.484 220.911 96.98 237.334 173.333 5.317 24.733-3 48.283-24.733 70.017-17.433 17.433-36.175 26.267-55.708 26.267-87.958 0-165.042-178.683-194.1-255.517-0.423-1.119-0.256-2.264-0.426-3.404-0.16 1.297-0.008 2.599-0.491 3.871-29.050 76.683-106.1 255.050-193.917 255.050-19.533 0-38.275-8.833-55.708-26.267-21.725-21.733-30.042-45.267-24.733-69.983 16.4-76.371 160.628-142.975 237.329-173.367h-447.162c-13.175 0-23.892-10.733-23.892-23.9v-181.733c0-13.167 10.717-23.9 23.892-23.9h48.45v-430.083c0-13.167 10.717-23.9 23.892-23.9h824.8c13.175 0 23.892 10.733 23.892 23.9v430.083h48.45c13.175 0 23.892 10.733 23.892 23.9v181.733c0 13.167-10.717 23.9-23.892 23.9zM706.467 910.911c15.775 0 31.275-7.5 46.058-22.283 18.492-18.483 25.375-37.3 21.033-57.483-16.733-77.8-192.117-149.717-245.458-169.9-1.192-0.383-2.267 0.217-2.733 0.883-0.433 0.633-0.517 1.333-0.233 2.083 21.892 57.883 99.658 246.7 181.333 246.7zM250.442 831.178c-4.333 20.167 2.542 38.967 21.033 57.45 14.783 14.783 30.283 22.283 46.058 22.283 81.533 0 159.267-188.467 181.15-246.233 0.317-0.833 0.233-1.617-0.242-2.3-0.383-0.55-1.117-1.133-2.042-1.133l-0.967 0.183c-53.25 20.183-228.308 92.067-244.992 169.75zM511.854 660.326c0.377-1.875 0.993-3.703 2.056-5.381h-4.108c1.097 1.665 1.634 3.515 2.052 5.381zM17.017 449.311v181.733c0 5.65 4.592 10.233 10.242 10.233h477.917v-202.2h-477.917c-5.65 0-10.242 4.583-10.242 10.233zM89.358-4.672v430.083h415.817v-440.317h-405.575c-5.65 0-10.242 4.583-10.242 10.233zM934.642-4.672c0-5.65-4.592-10.233-10.242-10.233h-405.575v440.317h415.817v-430.083zM1006.983 449.311c0-5.65-4.592-10.233-10.242-10.233h-477.917v202.2h477.917c5.65 0 10.242-4.583 10.242-10.233v-181.733z" />
<glyph unicode="&#xe928;" glyph-name="globe" d="M512 911.644c-255.659 0-463.644-207.986-463.644-463.644s207.986-463.644 463.644-463.644 463.644 207.986 463.644 463.644-207.986 463.644-463.644 463.644zM71.396 436.622h164.864c1.058-73.239 12.242-142.29 31.323-203.378h-140.436c-33.883 60.473-53.862 129.695-55.751 203.378zM523.378 685.511v202.877c84.662-6.565 158.595-85.902 201.728-202.877h-201.728zM732.979 662.756c19.456-60.484 30.936-129.707 32.006-203.378h-241.607v203.378h209.601zM500.622 685.511h-201.728c43.133 116.975 117.066 196.312 201.728 202.877v-202.877zM500.622 662.756v-203.378h-241.607c1.081 73.671 12.561 142.894 32.006 203.378h209.601zM236.26 459.378h-164.864c1.889 73.671 21.868 142.894 55.751 203.378h140.436c-19.081-61.087-30.265-130.139-31.323-203.378zM259.015 436.622h241.607v-203.378h-209.601c-19.456 60.473-30.936 129.695-32.006 203.378zM500.622 210.489v-202.877c-84.662 6.565-158.595 85.902-201.728 202.877h201.728zM523.378 210.489h201.728c-43.133-116.975-117.066-196.312-201.728-202.877v202.877zM523.378 233.244v203.378h241.607c-1.081-73.682-12.561-142.905-32.006-203.378h-209.601zM787.74 436.622h164.853c-1.877-73.682-21.868-142.905-55.74-203.378h-140.447c19.092 61.087 30.276 130.139 31.334 203.378zM787.74 459.378c-1.070 73.239-12.242 142.29-31.334 203.378h140.436c33.894-60.484 53.874-129.707 55.751-203.378h-164.853zM883.154 685.511h-134.315c-30.185 84.673-75.969 151.905-130.64 190.362 110.694-27.477 204.937-96.905 264.954-190.362zM405.8 875.873c-54.682-38.468-100.466-105.7-130.64-190.362h-134.315c60.018 93.457 154.26 162.873 264.954 190.362zM140.846 210.489h134.303c30.185-84.662 75.969-151.905 130.64-190.362-110.683 27.489-204.925 96.905-264.943 190.362zM618.2 20.127c54.682 38.468 100.454 105.688 130.64 190.362h134.315c-60.018-93.457-154.26-162.873-264.954-190.362z" />
<glyph unicode="&#xe929;" glyph-name="go-green" d="M429 896c-6.973-1.797-12.227-8.802-12-16l-1-497h-398c-1.653 0.262-3.347 0.262-5 0-6.609-2.165-11.345-9.054-11-16v-384c0.001-8.377 7.623-15.999 16-16l233 1c1.653-0.259 3.347-0.259 5 0h240c8.453-0.118 16.228 7.546 16.228 16s-7.775 16.12-16.228 16h-48v282c0.712 1.912 1.053 3.961 1 6v79c0.054 2.039-0.288 4.088-1 6l1 491h224v-237c-0.010-0.333-0.010-0.667 0-1v-2l-1-624h-47c-0.997 0.093-2.003 0.093-3 0-8.379-0.783-15.29-9.121-14.505-17.5s9.126-15.288 17.505-14.5h207c8.453-0.118 16.228 7.546 16.228 16s-7.775 16.12-16.228 16h-128v282c0.712 1.912 1.053 3.961 1 6v320h191v-256c-0.118-8.453 7.546-16.228 16-16.228s16.12 7.775 16 16.228v272c-0.001 8.377-7.623 15.999-16 16h-207v240c-0.001 8.377-7.623 15.999-16 16h-256c-0.666 0.042-1.334 0.042-2 0-0.666 0.042-1.334 0.042-2 0zM496 832h-16v-64h64v64h-16zM592 832h-16v-64h64v64h-16zM496 736h-16v-64h64v64h-16zM592 736h-16v-64h64v64h-16zM496 640h-16v-64h64v64h-16zM592 640h-16v-64h64v64h-16zM736 576v-32h128v32zM496 544h-16v-64h64v64h-16zM592 544h-16v-64h64v64h-16zM736 512v-32h128v32zM496 448h-16v-64h64v64h-16zM592 448h-16v-64h64v64h-16zM736 448v-32h128v32zM736 384v-32h128v32zM496 352h-16v-64h64v64h-16zM592 352h-16v-64h64v64h-16zM34 351h382v-351h-163c-0.666 0.042-1.334 0.042-2 0l-217-1zM65 320v-32h319v32zM736 320v-32h128v32zM910 303l-10-7c-66.816-50.112-87.498-103.074-78-147 8.83-40.839 41.326-68.987 74-87l-1-87c-0.118-8.453 7.546-16.228 16-16.228s16.12 7.775 16 16.228l1 88c31.478 18.141 61.476 46.575 70 86 9.498 43.926-11.184 96.888-78 147zM910 259c48.279-40.675 61.943-75.515 56-103-4.547-21.028-19.463-39.647-38-54v33c0.166 9.477-9.689 17.778-19 16-7.334-1.399-13.132-8.534-13-16v-35c-20.138 14.67-37.167 33.649-42 56-5.943 27.485 7.721 62.325 56 103zM65 256v-32h319v32zM736 256v-32h64v32zM560 215c-43.993 0-80-36.006-80-80 0-38.494 27.636-70.507 64-78v-74c-0.118-8.453 7.546-16.228 16-16.228s16.12 7.775 16 16.228v74c36.364 7.493 64 39.506 64 78 0 43.994-36.007 80-80 80zM65 192v-32h319v32zM736 192v-32h64v32zM560 183c26.699 0 48-21.302 48-48 0-21.136-13.19-38.52-32-45v45c0.166 9.477-9.689 17.778-19 16-7.334-1.399-13.132-8.534-13-16v-45c-18.81 6.48-32 23.864-32 45 0 26.698 21.301 48 48 48zM65 128v-32h319v32zM736 128v-32h64v32zM736 64v-32h96v32zM65 63v-32h319v32z" />
<glyph unicode="&#xe92a;" glyph-name="happy" d="M512.032-64.112c-282.4 0-512.144 229.744-512.144 512.112s229.744 512.112 512.144 512.112c282.352 0 512.080-229.728 512.080-512.112s-229.728-512.112-512.080-512.112zM512.032 928.112c-264.752 0-480.144-215.376-480.144-480.112s215.392-480.112 480.144-480.112c264.72 0 480.080 215.376 480.080 480.112s-215.36 480.112-480.080 480.112zM406.992 588.368c0-50.607-32.021-91.632-71.52-91.632s-71.52 41.025-71.52 91.632c0 50.607 32.021 91.632 71.52 91.632s71.52-41.025 71.52-91.632zM760.016 588.368c0-50.607-31.999-91.632-71.472-91.632s-71.472 41.025-71.472 91.632c0 50.607 31.999 91.632 71.472 91.632s71.472-41.025 71.472-91.632zM517.104 159.024c-4.48 0-8.96 0.080-13.44 0.24-178.304 6.432-299.536 137.6-304.608 143.168l23.664 21.552c1.152-1.28 117.696-126.976 282.416-132.752 104.8-3.744 206.976 41.248 303.904 133.568l22.064-23.184c-99.44-94.656-205.008-142.592-314-142.592zM234.088 365.147l26.458-18.003-58.888-86.543-26.458 18.003 58.888 86.543zM800.446 365.202l58.92-86.511-26.435-18.004-58.92 86.511 26.435 18.004z" />
<glyph unicode="&#xe92b;" glyph-name="heart" d="M1022.628 690.145c-13.65 134.328-127.078 239.135-264.991 239.135-110.541 0-205.312-67.328-245.637-163.195-40.325 95.867-135.096 163.195-245.627 163.195-137.923 0-251.361-104.806-265.001-239.135-0.911-8.95-1.372-18.043-1.372-27.238 0-323.645 397.189-476.396 512-692.255v0c114.811 215.849 512 368.599 512 692.255 0 9.196-0.461 18.289-1.372 27.238z" />
<glyph unicode="&#xe92c;" glyph-name="heart-beat" d="M512.010 54.671l-365.302 351.334c-100.506 96.707-103.649 257.178-6.973 357.714 48.159 50.074 112.916 77.629 182.415 77.629 65.72 0 128-25.088 175.34-70.646l14.51-13.957 14.49 13.957c47.35 45.558 109.619 70.646 175.34 70.646 69.499 0 134.267-27.546 182.405-77.629 96.686-100.536 93.563-261.038-6.984-357.734l-365.24-351.314zM322.161 808.561c-60.498 0-116.9-23.992-158.802-67.584-84.152-87.511-81.408-227.205 6.113-311.409l342.548-329.482 342.528 329.482c87.501 84.193 90.235 223.898 6.083 311.409-41.882 43.581-98.304 67.584-158.781 67.584-57.201 0-111.421-21.821-152.627-61.491l-37.202-35.83-37.222 35.83c-41.216 39.68-95.427 61.491-152.637 61.491zM458.793 329.37l-89.6 219.924-48.896-114.493h-190.986v32.768h169.359l71.229 166.84 90.624-222.423 101.202 221.676 88.351-223.488 45.363 87.48h217.344v-32.778h-197.437l-69.304-133.673-86.487 218.829z" />
<glyph unicode="&#xe92d;" glyph-name="heart-o" d="M319.984 785.799c-50.438 0-100.688-19.346-139.201-58.56-77.021-78.429-76.937-205.024 0-283.52l323.84-330.561c1.849-1.829 4.393-2.959 7.2-2.959s5.351 1.13 7.201 2.959c108.067 110.037 216.092 220.201 324.16 330.239 77.022 78.429 77.022 204.772 0 283.2s-201.696 78.43-278.721 0l-52.161-53.12-52.799 53.76c-38.512 39.214-89.082 58.56-139.52 58.56zM319.984 765.639c45.057 0 90.139-17.506 124.8-52.8l60.16-61.12c1.849-1.829 4.393-2.959 7.2-2.959s5.351 1.13 7.201 2.959l59.839 60.799c69.324 70.589 180.277 70.588 249.6 0s69.323-184.132 0-254.72c-105.636-107.564-211.163-215.318-316.8-322.881l-316.8 323.2c-69.262 70.665-69.322 184.133 0 254.72 34.662 35.294 79.743 52.8 124.8 52.8z" />
<glyph unicode="&#xe92e;" glyph-name="Home" d="M444.416 337.408h102.4v185.344h-102.4v-185.344zM458.752 442.88h29.696v-91.136h-29.696v91.136zM502.784 351.744v91.136h29.696v-91.136h-29.696zM532.48 458.24h-29.696v50.176h29.696v-50.176zM488.448 507.392v-49.152h-29.696v50.176h29.696zM317.44 337.408h102.4v185.344h-102.4v-185.344zM332.8 442.88h29.696v-91.136h-29.696v91.136zM376.832 351.744v91.136h29.696v-91.136h-29.696zM405.504 458.24h-29.696v50.176h29.696v-50.176zM361.472 507.392v-49.152h-29.696v50.176h29.696zM191.488 337.408h102.4v185.344h-102.4v-185.344zM205.824 442.88h29.696v-91.136h-29.696v91.136zM249.856 351.744v91.136h29.696v-91.136h-29.696zM279.552 458.24h-29.696v50.176h29.696v-50.176zM235.52 507.392v-49.152h-29.696v50.176h29.696zM444.416 58.88h102.4v184.32h-102.4v-184.32zM458.752 164.352h29.696v-91.136h-29.696v91.136zM502.784 73.216v91.136h29.696v-91.136h-29.696zM532.48 178.688h-29.696v50.176h29.696v-50.176zM488.448 228.864v-50.176h-29.696v50.176h29.696zM617.472 320v258.048h50.176l-299.008 199.68-299.008-199.68h51.2v-447.488c-1.024 0-2.048 0-4.096 0-18.432 0-34.816-11.264-40.96-28.672-24.576 0-44.032-19.456-44.032-43.008 0-4.096 0-7.168 1.024-11.264-12.288-8.192-19.456-21.504-19.456-36.864 0-23.552 19.456-43.008 43.008-43.008 10.24 0 34.816 0 59.392 0s50.176 0 59.392 0c0 0 0 0 0 0v0h839.68v352.256h-397.312zM368.64 759.296l250.88-166.912h-501.76l250.88 166.912zM117.76-16.896c-24.576 0-50.176 0-59.392 0-15.36 0-28.672 13.312-28.672 28.672 0 11.264 7.168 21.504 17.408 26.624l6.144 3.072-3.072 7.168c-2.048 4.096-2.048 7.168-2.048 11.264 0 15.36 13.312 28.672 28.672 28.672 1.024 0 3.072 0 5.12 0l7.168-1.024 1.024 7.168c3.072 13.312 14.336 23.552 27.648 23.552s25.6-9.216 27.648-22.528l1.024-7.168 7.168 1.024c2.048 0 3.072 0 5.12 0 15.36 0 28.672-13.312 28.672-28.672 0-4.096-1.024-8.192-3.072-12.288l-3.072-7.168 7.168-3.072c10.24-4.096 17.408-14.336 17.408-26.624 0-15.36-13.312-28.672-28.672-28.672-9.216-1.024-34.816 0-59.392 0zM320.512-17.92v246.784h94.208v-246.784h-94.208zM429.056-17.92v261.12h-122.88v-261.12h-96.256c7.168 7.168 11.264 17.408 11.264 28.672 0 15.36-8.192 28.672-20.48 36.864 1.024 3.072 2.048 7.168 2.048 11.264h92.16v184.32h-102.4v-155.648c-8.192 9.216-20.48 15.36-33.792 15.36-4.096 10.24-12.288 18.432-22.528 23.552v450.56h466.944v-595.968h-174.080zM205.824 164.352h29.696v-91.136h-29.696v91.136zM249.856 164.352h29.696v-91.136h-29.696v91.136zM279.552 178.688h-29.696v50.176h29.696v-50.176zM235.52 178.688h-29.696v50.176h29.696v-50.176zM925.696 214.528h-240.64v14.336h240.64v-14.336zM685.056 199.168h240.64v-14.336h-240.64v14.336zM685.056 170.496h240.64v-14.336h-240.64v14.336zM685.056 141.824h240.64v-14.336h-240.64v14.336zM685.056 113.152h240.64v-14.336h-240.64v14.336zM685.056 83.456h240.64v-14.336h-240.64v14.336zM685.056 54.784h240.64v-14.336h-240.64v14.336zM685.056 26.112h240.64v-14.336h-240.64v14.336zM685.056-2.56h240.64v-14.336h-240.64v14.336zM1001.472-17.92h-61.44v261.12h-270.336v-261.12h-53.248v322.56h384l1.024-322.56z" />
<glyph unicode="&#xe92f;" glyph-name="home-design" d="M1006.933 960h-989.867c-9.438 0-17.067-7.646-17.067-17.067v-989.867c0-9.421 7.629-17.067 17.067-17.067h989.867c9.438 0 17.067 7.646 17.067 17.067v989.867c0 9.421-7.629 17.067-17.067 17.067zM375.467-29.867v102.4h153.6v34.133h-170.667c-9.438 0-17.067-7.646-17.067-17.067v-119.467h-307.2v221.867h614.4c9.438 0 17.067 7.646 17.067 17.067v238.933h-34.133v-221.867h-324.267v187.733h-34.133v-187.733h-238.933v494.933h341.333v-187.733h-238.933v-34.133h256c9.438 0 17.067 7.646 17.067 17.067v204.8h256v34.133h-631.467v170.667h733.867v-119.467c0-9.421 7.629-17.067 17.067-17.067h102.4v34.133h-85.333v102.4h187.733v-341.333h-273.067v-34.133h273.067v-238.933h-170.667c-9.438 0-17.067-7.646-17.067-17.067v-273.067h34.133v256h153.6v-307.2h-614.4z" />
<glyph unicode="&#xe930;" glyph-name="home-listing" d="M366.144 88.864h291.68v-16h-291.68v16zM192.224-48h639.552v-16h-639.552v16zM512 940.32l323.328-231.296 9.312 12.992-332.64 237.984-332.608-237.984 9.312-12.992zM785.056 654.88l-273.056 196.704-273.056-196.704v-416.512h546.112v416.512zM586.016 254.368h-148.064v289.952h148.064v-289.952zM769.056 254.368h-167.040v305.952h-180.064v-305.952h-167.040v392.32l257.088 185.184 257.056-185.184v-392.32z" />
<glyph unicode="&#xe931;" glyph-name="home-listing2" d="M788.070 225.27l-119.112 119.122c-1.925 1.925-4.516 3-7.24 3s-5.325-1.075-7.24-3l-120.238-120.228c-2.929-2.929-3.809-7.332-2.222-11.162 1.577-3.82 5.325-6.318 9.462-6.318h36.116v-135.291c0-5.663 4.577-10.24 10.24-10.24h147.743c5.663 0 10.24 4.577 10.24 10.24v135.291h36.116c0.082-0.010 0.154-0.010 0.205 0 5.663 0 10.24 4.577 10.24 10.24 0 3.451-1.7 6.492-4.311 8.346zM725.34 81.633h-53.381v71.291c0 5.663-4.577 10.24-10.24 10.24s-10.24-4.577-10.24-10.24v-71.291h-53.402v125.051h127.263v-125.051zM566.2 227.164l95.519 95.508 95.498-95.508h-191.017zM739.123 396.861c-9.093 3.645-18.422 6.41-27.863 8.735v331.284c0 0.031-0.020 0.061-0.020 0.092s0.020 0.061 0.020 0.092c0 3.062-1.403 5.724-3.533 7.598l-150.477 151.552c-1.925 1.935-4.536 3.021-7.27 3.021h-364.483c-16.937 0-30.72-13.783-30.72-30.72v-695.583c0-16.937 13.783-30.72 30.72-30.72h278.19c26.44-84.204 105.196-145.459 198.011-145.459 114.432 0 207.524 93.082 207.524 207.503 0 85.217-51.077 160.809-130.099 192.604zM559.503 864.881l116.736-117.576h-116.736v117.576zM458.383 162.703h-272.886c-5.642 0-10.24 4.588-10.24 10.24v695.572c0 5.642 4.598 10.24 10.24 10.24h353.526v-141.701c0-5.652 4.577-10.24 10.24-10.24h141.517v-317.286c-9.595 1.341-19.272 2.253-29.082 2.253-104.561 0-193.085-78.131-205.916-181.74-1.055-8.468-1.587-17.152-1.587-25.784 0-14.223 1.454-28.129 4.188-41.554zM661.699 17.244c-103.127 0-187.023 83.896-187.023 187.023 0 7.793 0.481 15.616 1.434 23.255 11.561 93.368 91.351 163.779 185.6 163.779 24.105 0 47.585-4.516 69.775-13.445 71.229-28.652 117.258-96.788 117.258-173.599 0-103.117-83.917-187.013-187.044-187.013zM262.359 574.505h341.33c5.663 0 10.24 4.588 10.24 10.24s-4.577 10.24-10.24 10.24h-341.33c-5.652 0-10.24-4.588-10.24-10.24s4.577-10.24 10.24-10.24zM262.359 504.525h341.33c5.663 0 10.24 4.588 10.24 10.24s-4.577 10.24-10.24 10.24h-341.33c-5.652 0-10.24-4.588-10.24-10.24s4.577-10.24 10.24-10.24zM262.359 644.475h341.33c5.663 0 10.24 4.588 10.24 10.24s-4.577 10.24-10.24 10.24h-341.33c-5.652 0-10.24-4.588-10.24-10.24s4.577-10.24 10.24-10.24zM262.359 434.545h341.33c5.663 0 10.24 4.577 10.24 10.24 0 5.652-4.577 10.24-10.24 10.24h-341.33c-5.652 0-10.24-4.588-10.24-10.24 0-5.663 4.577-10.24 10.24-10.24zM460.82 374.815c0 5.663-4.588 10.24-10.24 10.24h-188.221c-5.652 0-10.24-4.577-10.24-10.24s4.588-10.24 10.24-10.24h188.232c5.652 0 10.23 4.577 10.23 10.24zM401.94 315.085h-139.581c-5.652 0-10.24-4.577-10.24-10.24s4.588-10.24 10.24-10.24h139.592c5.652 0 10.24 4.577 10.24 10.24s-4.588 10.24-10.25 10.24z" />
<glyph unicode="&#xe932;" glyph-name="home-o" d="M512 950.406l-502.406-502.406 62.406-62.406 64 64v-497.594h752v497.594l64-64 62.406 62.406-126.406 126.406v289.594h-152v-137.594zM512 905.594l256-256v182.406h88v-270.406l113.594-113.594-17.594-17.594-440 440-440-440-17.594 17.594zM512 825.594l345.594-345.594h-1.594v-496h-688v496h-1.594zM426.406 456c-72 0-130.406-58.406-130.406-130.406 0-30.4 10.406-59.988 30.406-83.188l0.632-0.842 184.962-149.564 164.797 130.406 16.644 15.069 0.153 0.119c22.4 24 34.406 55.2 34.406 88 0 72-58.406 130.406-130.406 130.406-32 0-62.394-12-85.594-32-24 20-54.394 32-85.594 32zM426.406 424c28 0 55.194-11.994 73.594-33.594l12-13.609 12 13.609c18.4 21.6 45.594 33.594 73.594 33.594 54.4 0 98.406-44.006 98.406-98.406 0-31.2-14.403-59.191-39.203-78.391l-19.203-14.406-125.594-100-146.406 116-1.594 0.797c-22.4 18.4-36 46.4-36 76 0 54.4 44.006 98.406 98.406 98.406z" />
<glyph unicode="&#xe933;" glyph-name="hotel" d="M512 888.32c-6.798 0-10.24-5.947-10.24-10.24v-194.56h-337.92c-5.362-0.001-10.239-4.878-10.24-10.24v-645.12h-71.68c-5.673 0-10.24-4.567-10.24-10.24s4.567-10.24 10.24-10.24h860.16c5.673 0 10.24 4.567 10.24 10.24s-4.567 10.24-10.24 10.24h-71.68v849.92c-0.001 5.362-4.878 10.239-10.24 10.24zM522.24 867.84h327.68v-839.68h-92.16v235.52c-0.001 5.362-4.878 10.239-10.24 10.24h-122.88c-0.638 0.060-1.282 0.060-1.92 0-4.694-0.896-8.404-5.462-8.32-10.24v-235.52h-92.16zM592 806.4c-4.694-0.896-8.404-5.462-8.32-10.24v-102.4c0.001-5.362 4.878-10.239 10.24-10.24h102.4c5.362 0.001 10.239 4.878 10.24 10.24v102.4c-0.001 5.362-4.878 10.239-10.24 10.24h-102.4c-0.638 0.060-1.282 0.060-1.92 0zM604.16 785.92h81.92v-81.92h-81.92zM174.080 663.040h327.68v-634.88h-92.16v194.56c-0.001 5.362-4.878 10.239-10.24 10.24h-122.88c-0.638 0.060-1.282 0.060-1.92 0-4.694-0.896-8.404-5.462-8.32-10.24v-194.56h-92.16zM673.92 622.080c-4.694-0.896-8.404-5.462-8.32-10.24v-102.4c0.001-5.362 4.878-10.239 10.24-10.24h102.4c5.362 0.001 10.239 4.878 10.24 10.24v102.4c-0.001 5.362-4.878 10.239-10.24 10.24h-102.4c-0.638 0.060-1.282 0.060-1.92 0zM327.040 601.6c-5.145-0.323-9.61-5.085-9.6-10.24v-102.4c0.001-5.362 4.878-10.239 10.24-10.24h102.4c5.362 0.001 10.239 4.878 10.24 10.24v102.4c0.084 4.778-3.626 9.344-8.32 10.24-0.638 0.060-1.282 0.060-1.92 0h-102.4c-0.213 0.007-0.427 0.007-0.64 0zM686.080 601.6h81.92v-81.92h-81.92zM337.92 581.12h81.92v-81.92h-81.92zM245.12 417.28c-5.145-0.323-9.61-5.085-9.6-10.24v-102.4c0.001-5.362 4.878-10.239 10.24-10.24h102.4c5.362 0.001 10.239 4.878 10.24 10.24v102.4c0.084 4.778-3.626 9.344-8.32 10.24-0.638 0.060-1.282 0.060-1.92 0h-102.4c-0.213 0.007-0.427 0.007-0.64 0zM256 396.8h81.92v-81.92h-81.92zM634.88 253.44h102.4v-225.28h-102.4zM286.72 212.48h102.4v-184.32h-102.4z" />
<glyph unicode="&#xe934;" glyph-name="idea" d="M747.52 714.24h-153.6c-5.655 0-10.24-4.585-10.24-10.24v-153.6c0-5.655 4.585-10.24 10.24-10.24h153.6c5.655 0 10.24 4.585 10.24 10.24v153.6c0 5.655-4.585 10.24-10.24 10.24zM737.28 560.64h-133.12v133.12h133.12zM655.36 580.608v0c0.884-1.134 1.975-2.062 3.223-2.738l0.054-0.027s0 2.253 0 2.253 2.867 1.331 4.301 1.331h2.662v-2.355l-0.819-1.126c0.922 0 1.434 0 2.355 0h0.717c0.666 0.229 1.241 0.506 1.777 0.84l-0.036-0.021c0.748 0.649 1.392 1.39 1.921 2.212l0.024 0.655 44.646 85.914c0.53 1.196 0.838 2.59 0.838 4.057 0 5.655-4.585 10.24-10.24 10.24-3.67 0-6.89-1.931-8.698-4.833l-37.196-71.723-22.426 29.901c-1.888 2.498-4.853 4.096-8.192 4.096-5.655 0-10.24-4.585-10.24-10.24 0-2.317 0.769-4.454 2.067-6.17zM782.438 847.36h-45.158v10.24c0 5.655-4.585 10.24-10.24 10.24h-409.6c-5.655 0-10.24-4.585-10.24-10.24v-10.24h-45.158c-31.59-0.058-57.183-25.651-57.242-57.236v-704.722c0.058-31.59 25.651-57.183 57.236-57.242h520.402c31.59 0.058 57.183 25.651 57.242 57.236v704.722c-0.058 31.59-25.651 57.183-57.236 57.242zM327.68 847.36h389.12v-10.24c0-0.037 0-0.081 0-0.126 0-27.016-20.924-49.145-47.45-51.065l-290.47-0.010c-27.725 1.332-49.868 23.475-51.195 51.077zM819.2 85.402c-0.058-20.279-16.482-36.704-36.756-36.762h-520.402c-20.279 0.058-36.704 16.482-36.762 36.756v704.722c0.058 20.279 16.482 36.704 36.756 36.762h46.086c6.34-34.255 35.343-60.067 70.618-61.436l290.445-0.004c34.66 1.277 62.835 27.441 67.239 61.085l45.913 0.355c0 0 0 0 0 0 20.323 0 36.806-16.446 36.864-36.756zM742.81 424.55l-61.44 88.166c-0.807 0.73-1.544 1.5-2.223 2.318l-0.030 0.037c-0.557 0.346-1.199 0.657-1.874 0.899-1.13 0.566-2.381 0.885-3.707 0.885s-2.577-0.319-3.681-0.884c-0.738-0.201-1.418-0.48-2.057-0.825l0.054 0.027c-0.731-0.807-1.5-1.543-2.318-2.223l-65.778-88.094c-1.279-1.69-2.048-3.827-2.048-6.144 0-5.655 4.585-10.24 10.24-10.24 3.339 0 6.304 1.598 8.173 4.070l46.303 62.080c-2.588-59.78-24.119-114.077-58.692-157.534-32.873-46.233-78.021-82.589-130.692-104.487-5.958-2.22-8.723-5.969-8.723-10.363 0-5.663 4.591-10.253 10.253-10.253 1.268 0 2.482 0.23 3.604 0.651 58.232 24.087 106.394 62.798 141.292 111.636 37.234 47.508 60.030 106.387 62.094 170.502l43.327-62.104c1.891-2.423 4.812-3.966 8.093-3.966 5.655 0 10.24 4.585 10.24 10.24 0 2-0.573 3.866-1.564 5.442zM389.12 396.8c-40.243 0-71.68-47.206-71.68-107.52 1.672-28.108 13.049-53.277 30.792-72.475l-0.072-36.786c0.92-10.542 9.705-18.751 20.407-18.751 0.242 0 0.483 0.004 0.722 0.012l39.696-0.001c0.205-0.007 0.446-0.012 0.688-0.012 10.702 0 19.487 8.209 20.401 18.674l0.005 36.941c17.671 19.12 29.048 44.289 30.705 72.075 0.015 60.635-31.421 107.841-71.665 107.841zM389.12 376.32c27.75 0 51.2-39.834 51.2-87.040-0.844-18.109-7.136-34.6-17.26-48.041 1.255 5.541 1.888 11.661 1.9 17.926 0 31.958-15.36 55.715-34.509 55.715s-34.509-24.166-34.509-56.115c-0.003-0.275-0.005-0.601-0.005-0.927 0-7.482 0.898-14.755 2.591-21.716-11.932 14.879-19.476 33.041-20.598 52.92-0.011 47.444 23.439 87.278 51.189 87.278zM390.451 223.437c-4.915 0-14.029 13.517-14.029 35.635s9.011 35.328 14.029 35.328 14.131-13.517 14.131-35.635-9.216-35.328-14.131-35.328zM408.986 181.76h-40.346v16.282c5.898-3.356 12.958-5.334 20.48-5.334s14.582 1.978 20.688 5.443l-0.208-16.39zM450.56 386.56c0.018 0 0.038 0 0.059 0 2.813 0 5.361 1.134 7.212 2.97l25.599 25.599c1.53 1.779 2.462 4.111 2.462 6.661 0 5.655-4.585 10.24-10.24 10.24-2.55 0-4.882-0.932-6.674-2.474l-25.587-25.589c-1.811-1.846-2.928-4.377-2.928-7.169 0-5.605 4.503-10.158 10.089-10.239zM501.76 366.080h-30.72c-5.655 0-10.24-4.585-10.24-10.24s4.585-10.24 10.24-10.24h30.72c5.655 0 10.24 4.585 10.24 10.24s-4.585 10.24-10.24 10.24zM320.41 389.53c1.779-1.53 4.111-2.462 6.661-2.462 5.655 0 10.24 4.585 10.24 10.24 0 2.55-0.932 4.882-2.474 6.674l-25.589 25.587c-1.779 1.53-4.111 2.462-6.661 2.462-5.655 0-10.24-4.585-10.24-10.24 0-2.55 0.932-4.882 2.474-6.674zM307.2 366.080h-30.72c-5.655 0-10.24-4.585-10.24-10.24s4.585-10.24 10.24-10.24h30.72c5.655 0 10.24 4.585 10.24 10.24s-4.585 10.24-10.24 10.24zM389.12 407.040c5.655 0 10.24 4.585 10.24 10.24v30.72c0 5.655-4.585 10.24-10.24 10.24s-10.24-4.585-10.24-10.24v-30.72c0-5.655 4.585-10.24 10.24-10.24z" />
<glyph unicode="&#xe935;" glyph-name="inr" d="M327.639 408.32h145.265v-144.988c0-78.93-61.778-142.633-140.677-144.998-4.997-0.174-8.899-4.28-8.899-9.247 0-0.082-0.041-0.143-0.041-0.215 0 0 0-0.010 0-0.020 0 0 0-0.010 0-0.020 0-0.092 0.041-0.164 0.041-0.236 0.184-4.956 4.178-8.94 9.175-8.94h380.6c5.1 0 9.216 4.116 9.216 9.216 0 5.089-4.116 9.206-9.216 9.206h-310.088c52.695 27.095 88.32 81.715 88.32 145.254v144.988h145.183c5.1 0 9.216 4.116 9.216 9.206 0 5.1-4.116 9.216-9.216 9.216h-145.183v145.132c0 79.974 65.116 145.029 145.183 145.029 5.1 0 9.216 4.116 9.216 9.206 0 5.1-4.116 9.216-9.216 9.216-90.204 0-163.625-73.318-163.625-163.461v-145.121h-145.254c-5.079 0-9.196-4.116-9.196-9.216 0-5.089 4.116-9.206 9.196-9.206z" />
<glyph unicode="&#xe936;" glyph-name="interested" d="M967.286 260.529c-14.178 6.302-29.932 6.302-45.686 0l-217.403-96.098c0 3.151 1.575 6.302 1.575 11.028 0 29.932-23.631 55.138-53.563 55.138v0 0c0 0 0 0-1.575 0v0h-149.662l-115.003 51.988c-23.631 11.028-50.412 17.329-75.618 17.329h-89.797v39.385h-220.554v-23.631h196.923v-310.351h-152.812v-23.631h176.443v39.385h66.166l209.526-69.317c14.178-4.726 28.357-6.302 42.535-6.302 22.055 0 44.111 4.726 63.015 15.754l363.914 190.622c14.178 6.302 25.206 17.329 31.508 31.508s6.302 29.932 0 45.686c-4.726 14.178-15.754 25.206-29.932 31.508zM976.738 191.212c-3.151-9.452-11.028-15.754-20.48-18.905l-363.914-190.622c-26.782-14.178-58.289-15.754-88.222-6.302l-211.102 70.892h-72.468v230.006h88.222c22.055 0 45.686-4.726 66.166-14.178l119.729-55.138h155.963c17.329 0 31.508-14.178 31.508-31.508s-14.178-31.508-31.508-31.508h-185.895c-17.329-3.151-48.837-17.329-48.837-50.412h23.631c0 18.905 23.631 25.206 28.357 26.782h182.745c9.452 0 17.329 3.151 25.206 6.302v0l253.637 111.852c9.452 3.151 18.905 3.151 26.782 0 9.452-3.151 15.754-11.028 18.905-18.905 4.726-9.452 4.726-18.905 1.575-28.357zM132.332 73.058h23.631v-23.631h-23.631v23.631zM81.92 73.058h23.631v-23.631h-23.631v23.631zM628.578 614.991c11.028 0 22.055-3.151 29.932-11.028 7.877-6.302 11.028-14.178 11.028-23.631s-4.726-17.329-11.028-23.631c-15.754-14.178-44.111-14.178-59.865 0-7.877 6.302-11.028 14.178-11.028 23.631h-23.631c0-15.754 6.302-29.932 20.48-40.96 9.452-7.877 20.48-12.603 33.083-15.754v-37.809h23.631v37.809c12.603 1.575 23.631 7.877 33.083 15.754 12.603 11.028 20.48 25.206 20.48 40.96s-6.302 29.932-20.48 40.96c-12.603 11.028-28.357 15.754-45.686 15.754-11.028 0-22.055 3.151-29.932 11.028-7.877 6.302-11.028 14.178-11.028 23.631s4.726 17.329 11.028 23.631c15.754 14.178 44.111 14.178 59.865 0 7.877-6.302 11.028-14.178 11.028-23.631h23.631c0 15.754-6.302 29.932-20.48 40.96-9.452 7.877-20.48 12.603-33.083 14.178v37.809h-23.631v-37.809c-12.603-1.575-23.631-6.302-33.083-14.178-12.603-11.028-20.48-25.206-20.48-40.96s6.302-29.932 20.48-40.96c12.603-9.452 28.357-15.754 45.686-15.754zM302.474 674.855l61.44 47.262v-288.295h-47.262v-23.631h620.702v23.631h-47.262v206.375c74.043 6.302 132.332 67.742 132.332 144.935 0 80.345-64.591 144.935-144.935 144.935-53.563 0-100.825-29.932-126.031-74.043l-124.455 94.523-174.868-133.908v66.166h-23.631v-83.495l-138.634-105.551 12.603-18.905zM879.065 906.437c66.166 0 121.305-55.138 121.305-121.305s-55.138-121.305-121.305-121.305c-66.166 0-121.305 55.138-121.305 121.305s55.138 121.305 121.305 121.305zM743.582 833.969c-6.302-15.754-9.452-31.508-9.452-48.837 0-75.618 58.289-138.634 132.332-144.935v-206.375h-477.342v305.625l239.458 181.169 115.003-86.646zM956.258 826.092l-17.329 15.754-89.797-89.797-29.932 29.932-17.329-15.754 47.262-47.262z" />
<glyph unicode="&#xe937;" glyph-name="light" d="M603.048 100.479h-182.107c-16.626 0-30.291-13.543-30.291-30.291v-60.636c0-16.78 13.664-30.423 30.291-30.423h24.378c13.224-23.299 37.91-39.187 66.681-39.187 28.749 0 53.446 15.878 66.67 39.187h24.378c16.637 0 30.291 13.631 30.291 30.423v60.636c0 16.747-13.664 30.291-30.291 30.291zM613.123 9.563c0-5.615-4.503-10.196-10.075-10.196h-24.378c-7.267 0-13.984-3.898-17.573-10.229-10.317-18.124-28.65-28.958-49.097-28.958-20.458 0-38.791 10.824-49.097 28.958-3.601 6.32-10.317 10.229-17.584 10.229h-24.378c-5.571 0-10.064 4.58-10.064 10.196v60.636c0 5.549 4.492 10.064 10.064 10.064h182.096c5.571 0 10.075-4.514 10.075-10.064v-60.636zM512 702.414c-129.839 0-235.113-105.263-235.113-235.102 0-133.384 114.743-211.043 114.743-279.42v-16.626c0-16.648 13.543-30.092 30.059-30.092h180.598c16.505 0 30.048 13.455 30.048 30.092v16.45c0 68.564 114.754 143.999 114.754 279.596 0.011 129.839-105.263 235.102-235.091 235.102zM658.498 291.801c-24.884-37.271-46.366-69.467-46.366-104.085v-16.45c0-5.45-4.382-9.866-9.844-9.866h-180.587c-5.45 0-9.844 4.415-9.844 9.866v16.626c0 34.629-21.603 67.232-46.642 104.977-31.909 48.183-68.102 102.796-68.102 174.443 0 118.476 96.377 214.886 214.886 214.886 118.498 0 214.875-96.399 214.875-214.886 0-73.111-36.335-127.516-68.377-175.511zM512 818.435c5.604 0 10.108 4.525 10.108 10.108v121.35c0 5.582-4.503 10.108-10.108 10.108-5.615 0-10.119-4.525-10.119-10.108v-121.35c0-5.593 4.503-10.108 10.119-10.108zM997.365 474.624h-121.338c-5.615 0-10.108-4.525-10.108-10.108 0-5.593 4.492-10.108 10.108-10.108h121.35c5.604 0 10.108 4.514 10.108 10.108 0 5.582-4.503 10.108-10.119 10.108zM147.962 474.624h-121.338c-5.615 0-10.108-4.525-10.108-10.108 0-5.593 4.492-10.108 10.108-10.108h121.35c5.604 0 10.108 4.525 10.108 10.108-0.011 5.582-4.514 10.108-10.119 10.108zM776.555 214.209c-3.942 3.942-10.339 3.942-14.292 0s-3.953-10.35 0-14.303l85.796-85.796c1.971-1.971 4.58-2.962 7.135-2.962 2.566 0 5.186 0.991 7.146 2.962 3.942 3.953 3.942 10.35 0 14.303l-85.785 85.796zM175.941 814.834c-3.953 3.942-10.35 3.942-14.303 0-3.953-3.953-3.953-10.35 0-14.303l85.796-85.796c1.971-1.971 4.58-2.962 7.179-2.962 2.566 0 5.142 0.991 7.113 2.962 3.953 3.953 3.953 10.35 0 14.303l-85.785 85.796zM247.39 214.242l-85.796-85.785c-3.942-3.953-3.942-10.339 0-14.303 1.982-1.982 4.547-2.973 7.146-2.973 2.61 0 5.175 0.991 7.146 2.973l85.796 85.796c3.942 3.942 3.942 10.35 0 14.292-3.942 3.953-10.35 3.953-14.292 0zM769.376 711.796c2.599 0 5.175 0.991 7.146 2.962l85.796 85.807c3.942 3.953 3.942 10.35 0 14.303-3.953 3.953-10.35 3.953-14.303 0l-85.796-85.807c-3.942-3.953-3.942-10.35 0-14.303 1.982-1.971 4.558-2.962 7.157-2.962zM336.301 445.556c26.228 97.963 126.635 178.407 195.914 195.914-108.225 0-195.914-87.712-195.914-195.914z" />
<glyph unicode="&#xe938;" glyph-name="link" d="M558.292 226.156l-197.938-198.094c-35.812-35.812-83.376-55.5-133.938-55.5-50.75 0-98.376 19.688-134.156 55.5-35.812 35.844-55.532 83.468-55.532 134.094 0 50.656 19.718 98.282 55.532 134.094l202.158 202.25c35.782 35.812 83.376 55.562 134.062 55.562 50.624 0 98.218-19.75 134-55.562 17.438-17.438 31.094-37.656 40.594-60.062 1.156-3.188 2.594-5.438 4.532-7.376 6.876-6.844 18.876-6.844 25.782 0 5.282 5.282 6.812 13.376 3.782 20.218l-0.938 2.312c-11.282 26.376-27.406 50.156-47.938 70.75-42.688 42.718-99.468 66.218-159.844 66.218s-117.156-23.5-159.844-66.218l-202.126-202.248c-88.156-88.218-88.156-231.688 0-319.844 42.688-42.688 99.438-66.25 159.844-66.25h0.032c60.344 0 117.094 23.5 159.782 66.218l197.968 198.094c7.094 7.094 7.094 18.718 0 25.844-6.906 6.844-18.906 6.844-25.814 0zM957.542 893.782c-42.686 42.718-99.436 66.218-159.812 66.218s-117.124-23.5-159.844-66.218l-197.968-198.032c-7.094-7.156-7.124-18.75 0-25.876 6.906-6.844 18.906-6.876 25.812 0l197.938 198.062c35.812 35.844 83.406 55.562 134.062 55.562 50.624 0 98.25-19.718 134.032-55.562 35.782-35.782 55.532-83.376 55.532-134.062 0-50.656-19.718-98.25-55.532-134.094l-202.156-202.28c-35.814-35.812-83.438-55.5-134.064-55.5-50.594 0-98.188 19.688-134 55.5-17.438 17.438-31.124 37.688-40.594 60.124-1.156 3.156-2.594 5.406-4.532 7.376-3.438 3.406-8 5.312-12.876 5.312s-9.438-1.906-12.906-5.312c-5.344-5.376-6.844-13.376-3.782-20.312 11.438-27.5 27.876-51.968 48.876-73 42.688-42.688 99.468-66.188 159.812-66.188 60.406 0 117.188 23.5 159.876 66.188l202.124 202.25c88.128 88.186 88.128 231.656 0.002 319.844z" />
<glyph unicode="&#xe939;" glyph-name="lock" d="M838.14 565.344h-100.406v168.876c0 124.498-101.25 225.78-225.718 225.78-124.484 0-225.75-101.282-225.75-225.782v-168.876h-100.39c-26.39 0-47.86-21.438-47.86-47.812v-533.688c0-26.376 21.468-47.844 47.86-47.844h652.264c26.406 0 47.844 21.468 47.844 47.844v533.69c0 26.374-21.438 47.812-47.844 47.812zM322.656 734.218c0 104.376 84.954 189.344 189.36 189.344s189.344-84.968 189.344-189.344v-168.876h-378.704v168.876zM849.61-27.594h-675.188v556.562h675.188v-556.562zM431.64 218.468l2.876-3.25 0.016-41.124c-0.016-44.312 34.734-79.062 77.468-79.062s77.484 34.75 77.484 77.532v42.656l2.876 3.25c4.438 5.032 8.5 10.562 12 16.468 9.688 16.438 14.812 35.25 14.812 54.344 0 59.062-48.062 107.124-107.172 107.124-59.078 0-107.14-48.062-107.14-107.124 0-19.094 5.124-37.906 14.812-54.344 3.484-5.906 7.532-11.438 11.968-16.47zM512 360.032c39.016 0 70.734-31.718 70.734-70.75 0-22.812-11.188-44.312-29.624-57.562l-0.032-58.438c0.032-23.376-18.422-41.782-41.078-41.782s-41.078 18.406-41.078 41.062v59.156c-18.454 13.25-29.656 34.75-29.656 57.562 0 39.032 31.734 70.752 70.734 70.752z" />
<glyph unicode="&#xe93a;" glyph-name="login" d="M532.48 888.32c-28.188 0-51.2-23.012-51.2-51.2v-163.84c-0.001-0.043-0.001-0.094-0.001-0.145 0-5.656 4.585-10.241 10.241-10.241s10.241 4.585 10.241 10.241c0 0.051 0 0.102-0.001 0.152v163.832c0 17.196 13.524 30.72 30.72 30.72h266.24c17.196 0 30.72-13.524 30.72-30.72v-778.24c0-17.196-13.524-30.72-30.72-30.72-0.043 0.001-0.094 0.001-0.145 0.001-5.656 0-10.241-4.585-10.241-10.241s4.585-10.241 10.241-10.241c0.051 0 0.102 0 0.152 0.001 28.18 0 51.192 23.012 51.192 51.2v778.24c0 28.188-23.012 51.2-51.2 51.2h-266.24zM592.64 632.64c-5.224-0.511-9.272-4.88-9.272-10.195 0-2.598 0.968-4.97 2.562-6.776l129.59-157.429h-531.2c-0.288 0.029-0.622 0.045-0.96 0.045s-0.672-0.016-1.002-0.048c-5.21-0.504-9.283-4.895-9.283-10.237 0-5.68 4.605-10.285 10.285-10.285 0.338 0 0.672 0.016 1.002 0.048l531.158-0.003-129.6-157.12c-1.46-1.77-2.346-4.062-2.346-6.56 0-5.714 4.632-10.346 10.346-10.346 3.215 0 6.088 1.467 7.986 3.768l143.374 174.098c1.479 1.763 2.377 4.057 2.377 6.56s-0.898 4.797-2.39 6.576l-143.347 174.064c-1.892 2.392-4.795 3.914-8.053 3.914-0.433 0-0.859-0.027-1.277-0.079zM490.24 233.28c-5.082-0.655-8.968-4.954-8.968-10.162 0-0.14 0.003-0.28 0.008-0.418l-0.001-163.82c0-28.188 23.012-51.2 51.2-51.2h184.32c0.043-0.001 0.094-0.001 0.145-0.001 5.656 0 10.241 4.585 10.241 10.241s-4.585 10.241-10.241 10.241c-0.051 0-0.102 0-0.152-0.001h-184.312c-17.196 0-30.72 13.524-30.72 30.72v163.84c0.005 0.119 0.008 0.259 0.008 0.4 0 5.656-4.585 10.241-10.241 10.241-0.454 0-0.9-0.029-1.338-0.087z" />
<glyph unicode="&#xe93b;" glyph-name="logout" d="M225.28 888.32c-28.188 0-51.2-23.012-51.2-51.2v-778.24c0-28.188 23.012-51.2 51.2-51.2h266.24c28.188 0 51.2 23.012 51.2 51.2v163.84c0.001 0.043 0.001 0.094 0.001 0.145 0 5.656-4.585 10.241-10.241 10.241s-10.241-4.585-10.241-10.241c0-0.051 0-0.102 0.001-0.152v-163.832c0-17.196-13.524-30.72-30.72-30.72h-266.24c-17.196 0-30.72 13.524-30.72 30.72v778.24c0 17.196 13.524 30.72 30.72 30.72h266.24c17.196 0 30.72-13.524 30.72-30.72v-163.84c-0.001-0.043-0.001-0.094-0.001-0.145 0-5.656 4.585-10.241 10.241-10.241s10.241 4.585 10.241 10.241c0 0.051 0 0.102-0.001 0.152v163.832c0 28.188-23.012 51.2-51.2 51.2h-266.24zM695.040 632.64c-5.224-0.511-9.272-4.88-9.272-10.195 0-2.598 0.968-4.97 2.562-6.776l129.59-157.429h-531.2c-0.288 0.029-0.622 0.045-0.96 0.045s-0.672-0.016-1.002-0.048c-5.21-0.504-9.283-4.895-9.283-10.237 0-5.68 4.605-10.285 10.285-10.285 0.338 0 0.672 0.016 1.002 0.048l531.158-0.003-129.6-157.12c-1.46-1.77-2.346-4.062-2.346-6.56 0-5.714 4.632-10.346 10.346-10.346 3.215 0 6.088 1.467 7.986 3.768l143.374 174.098c1.479 1.763 2.377 4.057 2.377 6.56s-0.898 4.797-2.39 6.576l-143.347 174.064c-1.892 2.392-4.795 3.914-8.053 3.914-0.433 0-0.859-0.027-1.277-0.079z" />
<glyph unicode="&#xe93c;" glyph-name="marker2" d="M515.072 710.144c-71.68 0-130.048-58.368-130.048-130.048s58.368-130.048 130.048-130.048c71.68 1.024 130.048 59.392 130.048 131.072s-58.368 129.024-130.048 129.024zM515.072 471.552c-60.416 0-109.568 49.152-109.568 109.568s49.152 109.568 109.568 109.568 109.568-49.152 109.568-109.568-49.152-109.568-109.568-109.568zM515.072 909.824c-180.224 0-326.656-146.432-326.656-326.656 0-55.296 13.312-107.52 37.888-152.576 9.216-17.408 19.456-32.768 31.744-48.128l257.024-394.24 257.024 394.24c12.288 15.36 22.528 30.72 31.744 48.128 24.576 46.080 37.888 97.28 37.888 152.576 0 180.224-145.408 326.656-326.656 326.656zM785.408 439.808c-8.192-15.36-18.432-30.72-29.696-45.056 0 0-1.024-1.024-1.024-1.024l-239.616-367.616-239.616 367.616c0 0-1.024 1.024-1.024 1.024-11.264 14.336-21.504 29.696-29.696 45.056-23.552 44.032-35.84 92.16-35.84 143.36 1.024 167.936 138.24 305.152 306.176 305.152s306.176-137.216 306.176-306.176c0-50.176-12.288-97.28-35.84-142.336z" />
<glyph unicode="&#xe93d;" glyph-name="marker3" d="M696.6 311.4c94 135.6 141.8 240 141.8 310.6 0 180-146.4 326.4-326.4 326.4s-326.4-146.4-326.4-326.4c0-70.4 47.6-175 141.6-310.6-197-27.6-323.2-95.4-323.2-175.6 0-105.4 223.2-188.2 508-188.2s508 82.6 508 188.2c0 80.4-126.2 148.2-323.4 175.6zM216.4 622c0 163 132.6 295.6 295.6 295.6s295.6-132.6 295.6-295.6c0-66.6-52-175.2-150.6-313.6-4.6-6.4-9.2-12.8-14-19.4-14.4-19.8-29.8-40.2-46.8-62.2-0.2-0.2-0.4-0.4-0.6-0.8-36-46.8-67.4-84-83.6-102.8-16.2 18.8-47.6 56-83.8 102.8-0.2 0.2-0.2 0.4-0.4 0.4-15.4 20-30.6 40.4-45.6 60.8-5.2 7-10.4 14.2-15.4 21.2-98.4 138.6-150.4 247-150.4 313.6zM614.4 199.8c85.8-13.8 132-42.8 132-64 0-30.2-89.2-72.2-234.2-72.2-145.2 0-234.2 42-234.2 72.2 0 21.2 46.2 50.2 131.8 64 50.4-64.8 90.6-110 91-110.4 3-3.2 7.2-5.2 11.6-5.2s8.6 1.8 11.6 5.2c0 0.4 40 45.8 90.4 110.4zM512-21.6c-285.4 0-477.2 81.4-477.2 157.4 0 62.8 130.8 124.2 312.4 147.2 2.2-3.2 4.6-6.4 7-9.4 9.2-12.8 18.6-25.6 28.2-38.2 2-2.6 3.8-5.4 5.8-8-89-17-141.4-50.6-141.4-91.6 0-66.8 136.6-103 265-103 128.6 0 265 36 265 103 0 41.2-52.4 74.8-141.4 91.6 0.2 0.2 0.4 0.6 0.6 0.8 6.6 8.6 12.8 17 18.8 25.2 1.8 2.4 3.4 4.6 5 6.8 4.8 6.4 9.4 12.8 13.8 19 0.8 1.2 1.8 2.6 2.8 3.8 181.6-22.8 312.6-84.2 312.6-147.2 0.2-76-191.6-157.4-477-157.4zM512 429.6c73.6 0 137.8 41.2 170.6 101.6 15 27.6 23.4 59 23.4 92.4 0 107-87 194.2-194.2 194.2-33.4 0-65-8.6-92.4-23.4-60.6-33-101.6-97-101.6-170.6 0-107 87.2-194.2 194.2-194.2zM434.2 767.4c23.2 12.6 49.6 19.8 77.8 19.8 90 0 163.4-73.2 163.4-163.4 0-28.2-7.2-54.6-19.8-77.8-27.6-51-81.6-85.6-143.6-85.6-90 0-163.4 73.2-163.4 163.4 0 62 34.8 115.8 85.6 143.6z" />
<glyph unicode="&#xe93e;" glyph-name="membership" d="M768 304h160c26.464 0 48 21.536 48 48v66.944c18.576 6.624 32 24.224 32 45.056 0 26.464-21.536 48-48 48s-48-21.536-48-48c0-20.832 13.424-38.432 32-45.056v-66.944c0-8.816-7.168-16-16-16h-160c-26.464 0-48-21.536-48-48v-304h-32v384c0 8.816 7.168 16 16 16h112c26.464 0 48 21.536 48 48v50.944c18.576 6.624 32 24.224 32 45.056 0 26.464-21.536 48-48 48s-48-21.536-48-48c0-20.832 13.424-38.432 32-45.056v-50.944c0-8.816-7.168-16-16-16h-112c-26.464 0-48-21.536-48-48v-384h-32v128h-32v-128h-32v64h-32v-64h-32v64h-32v-64h-32v128h-32v-128h-32v416c0 26.464-21.536 48-48 48h-128c-8.832 0-16 7.184-16 16v114.944c18.576 6.624 32 24.224 32 45.056 0 26.464-21.536 48-48 48s-48-21.536-48-48c0-20.832 13.424-38.432 32-45.056v-114.944c0-26.464 21.536-48 48-48h128c8.832 0 16-7.184 16-16v-416h-32v336c0 26.464-21.536 48-48 48h-160c-8.832 0-16 7.184-16 16v114.944c18.576 6.624 32 24.224 32 45.056 0 26.464-21.536 48-48 48s-48-21.536-48-48c0-20.832 13.424-38.432 32-45.056v-114.944c0-26.464 21.536-48 48-48h160c8.832 0 16-7.184 16-16v-336h-192v-32h864v32h-192v304c0 8.816 7.168 16 16 16zM960 480c8.832 0 16-7.184 16-16s-7.168-16-16-16-16 7.184-16 16 7.168 16 16 16zM848 544c8.832 0 16-7.184 16-16s-7.168-16-16-16-16 7.184-16 16 7.168 16 16 16zM160 640c8.832 0 16-7.184 16-16s-7.168-16-16-16-16 7.184-16 16 7.168 16 16 16zM64 560c8.832 0 16-7.184 16-16s-7.168-16-16-16-16 7.184-16 16 7.168 16 16 16zM382.144 722.032l-17.216-17.216 67.872-67.888 17.216 17.232c4.544-2.176 9.216-4.096 13.984-5.792v-24.368h96v24.352c4.768 1.68 9.44 3.616 13.984 5.792l17.216-17.232 67.872 67.888-17.216 17.216c2.16 4.544 4.096 9.216 5.776 13.968h24.368v96.016h-24.352c-1.68 4.752-3.632 9.424-5.776 13.968l17.216 17.216-67.888 67.888-17.216-17.216c-4.544 2.16-9.216 4.096-13.984 5.792v24.352h-96v-24.352c-4.768-1.68-9.44-3.616-13.984-5.776l-17.216 17.2-67.872-67.888 17.216-17.216c-2.16-4.544-4.096-9.216-5.792-13.968h-24.352v-96h24.352c1.696-4.752 3.632-9.424 5.792-13.968zM384 800h16.576l3.088 12c2.624 10.144 6.64 19.84 11.936 28.8l6.304 10.672-11.728 11.728 22.624 22.624 11.728-11.728 10.688 6.32c8.944 5.28 18.624 9.28 28.784 11.904l12 3.088v16.592h32v-16.592l12-3.088c10.16-2.624 19.84-6.624 28.784-11.904l10.688-6.32 11.728 11.728 22.624-22.624-11.728-11.728 6.304-10.672c5.296-8.96 9.312-18.656 11.936-28.8l3.088-12h16.576v-32h-16.576l-3.088-12c-2.624-10.144-6.64-19.84-11.936-28.8l-6.304-10.672 11.728-11.728-22.624-22.624-11.744 11.744-10.672-6.32c-8.944-5.28-18.608-9.296-28.784-11.92l-12-3.088v-16.592h-32v16.592l-12 3.088c-10.176 2.624-19.84 6.64-28.784 11.92l-10.672 6.32-11.744-11.744-22.624 22.624 11.728 11.728-6.304 10.672c-5.296 8.96-9.312 18.656-11.936 28.8l-3.088 12h-16.576v32zM512 704c44.112 0 80 35.888 80 80s-35.888 80-80 80-80-35.888-80-80 35.888-80 80-80zM512 832c26.464 0 48-21.536 48-48s-21.536-48-48-48-48 21.536-48 48 21.536 48 48 48zM464 592h32v-224h-32v224zM528 592h32v-224h-32v224zM240 722.944v-178.944c0-26.464 21.536-48 48-48h96c8.832 0 16-7.184 16-16v-176h32v176c0 26.464-21.536 48-48 48h-96c-8.832 0-16 7.184-16 16v178.944c18.576 6.624 32 24.224 32 45.056 0 26.464-21.536 48-48 48s-48-21.536-48-48c0-20.832 13.424-38.432 32-45.056zM256 784c8.832 0 16-7.184 16-16s-7.168-16-16-16-16 7.184-16 16 7.168 16 16 16zM736 642.944v-130.944c0-8.816-7.168-16-16-16h-80c-26.464 0-48-21.536-48-48v-144h32v144c0 8.816 7.168 16 16 16h80c26.464 0 48 21.536 48 48v130.944c18.576 6.624 32 24.224 32 45.056 0 26.464-21.536 48-48 48s-48-21.536-48-48c0-20.832 13.424-38.432 32-45.056zM752 704c8.832 0 16-7.184 16-16s-7.168-16-16-16-16 7.184-16 16 7.168 16 16 16zM592 240v8c0 30.88-25.12 56-56 56h-8v32h-32v-32h-8c-30.88 0-56-25.12-56-56s25.12-56 56-56h48c13.232 0 24-10.768 24-24s-10.768-24-24-24h-48c-13.232 0-24 10.768-24 24v8h-32v-8c0-30.88 25.12-56 56-56h8v-32h32v32h8c30.88 0 56 25.12 56 56s-25.12 56-56 56h-48c-13.232 0-24 10.768-24 24s10.768 24 24 24h48c13.232 0 24-10.768 24-24v-8h32zM976-16h32v-32h-32v32zM16-16h32v-32h-32v32z" />
<glyph unicode="&#xe93f;" glyph-name="message" d="M957.819 808.11h-891.658c-8.141 0-14.746-6.605-14.746-14.746v-529.623c0-8.141 6.605-14.735 14.746-14.735h121.836v-146.36c0-5.868 3.492-11.182 8.868-13.517 1.894-0.819 3.891-1.219 5.878-1.219 3.656 0 7.281 1.362 10.056 3.963l168.253 157.143h576.758c8.141 0 14.756 6.605 14.756 14.735v529.603c0.020 8.141-6.605 14.756-14.746 14.756zM943.084 278.487h-567.818c-3.738 0-7.342-1.423-10.076-3.983l-147.702-137.933v127.16c0 8.151-6.605 14.756-14.735 14.756h-121.846v500.122h862.167v-500.122zM244.244 497.050h535.491c4.884 0 8.837 3.963 8.837 8.837v46.223c0 4.884-3.963 8.837-8.837 8.837h-535.491c-4.884 0-8.837-3.963-8.837-8.837v-46.223c0-4.874 3.953-8.837 8.837-8.837zM253.102 543.263h517.775v-28.508h-517.775v28.508zM244.244 617.677h535.491c4.884 0 8.837 3.963 8.837 8.847v46.213c0 4.884-3.963 8.847-8.837 8.847h-535.491c-4.884 0-8.837-3.963-8.837-8.847v-46.213c0-4.884 3.953-8.847 8.837-8.847zM253.102 663.89h517.775v-28.518h-517.775v28.518zM244.244 376.433h267.756c4.884 0 8.837 3.963 8.837 8.837v46.223c0 4.884-3.963 8.837-8.837 8.837h-267.756c-4.884 0-8.837-3.963-8.837-8.837v-46.223c0-4.884 3.953-8.837 8.837-8.837zM253.102 422.636h250.040v-28.518h-250.040v28.518z" />
</font>
</defs>
</svg>
