<?xml version="1.0" standalone="no"?>
<!DOCTYPE svg PUBLIC "-//W3C//DTD SVG 20010904//EN"
 "http://www.w3.org/TR/2001/REC-SVG-20010904/DTD/svg10.dtd">
<svg version="1.0" xmlns="http://www.w3.org/2000/svg"
 width="700.000000pt" height="700.000000pt" viewBox="0 0 700.000000 700.000000"
 preserveAspectRatio="xMidYMid meet">
<metadata>
Created by potrace 1.11, written by Peter Selinger 2001-2013
</metadata>
<g transform="translate(0.000000,700.000000) scale(0.100000,-0.100000)"
fill="#000000" stroke="none">
<path d="M5464 6696 c-127 -162 -438 -477 -535 -544 -13 -9 -26 -18 -29 -21
-57 -64 -471 -365 -765 -556 -504 -328 -642 -419 -790 -523 -82 -58 -163 -116
-180 -129 -16 -13 -34 -27 -40 -31 -122 -90 -226 -176 -371 -303 -97 -85 -295
-290 -418 -431 -33 -38 -82 -81 -112 -98 -74 -43 -180 -126 -256 -202 -245
-244 -355 -465 -348 -703 1 -38 2 -86 2 -105 0 -19 -21 -93 -47 -165 -26 -71
-49 -139 -51 -150 -2 -11 -13 -55 -24 -99 -47 -186 -65 -335 -65 -556 0 -200
10 -286 54 -485 12 -51 56 -194 71 -230 80 -190 140 -298 237 -427 178 -236
412 -427 688 -563 145 -71 335 -139 449 -161 53 -10 67 -13 74 -18 4 -2 34 -7
67 -11 33 -4 89 -11 125 -15 69 -9 432 -6 446 3 5 2 32 8 59 11 86 12 286 67
388 108 130 52 226 104 353 190 366 248 693 726 827 1208 16 57 62 285 72 355
3 22 7 54 10 70 12 79 15 106 21 190 7 119 8 124 34 170 65 114 81 147 104
215 28 86 47 198 34 206 -4 3 -8 -8 -8 -25 0 -63 -84 -279 -139 -361 -7 -10
-10 46 -10 185 1 110 0 244 -1 297 -2 97 -2 98 33 145 41 57 90 144 84 150 -3
2 -20 -18 -40 -44 -19 -26 -47 -59 -61 -72 l-26 -24 -2 61 c-2 80 -3 89 -23
337 -2 22 -7 75 -10 117 -3 43 -8 86 -9 95 -2 10 -7 54 -11 98 -3 44 -8 94
-10 110 -2 17 -7 62 -10 100 -6 72 -11 124 -20 210 -3 28 -7 68 -9 90 -2 22
-7 72 -10 110 -13 140 -15 161 -21 220 -3 33 -8 83 -10 110 -2 28 -7 82 -11
120 -13 134 -7 515 11 653 2 19 7 68 10 110 3 43 8 93 10 112 32 261 33 269
62 405 34 166 85 320 148 448 29 59 53 107 52 107 -1 0 -25 -29 -53 -64z"/>
</g>
</svg>
